<svg class="logo-icon margin-bottom-3" width="80" height="80" viewBox="0 0 58 58" fill="none" xmlns="http://www.w3.org/2000/svg" style=""> <g clip-path="url(#clip0)"> <path d="M10.2015 46.3692C6.01482 43.4946 3.92146 42.0572 3.92188 40.0652C3.92229 38.0732 6.01623 36.6367 10.2041 33.7635L11.1765 33.0964C19.4996 27.3863 23.6612 24.5312 28.415 24.5298C33.1687 24.5283 37.3321 27.3809 45.6589 33.0862L46.6766 33.7835C50.8736 36.659 52.9721 38.0969 52.9719 40.091C52.9717 42.0853 50.8729 43.5227 46.6753 46.3974L33.1405 55.6672C30.8688 57.223 29.7329 58.0009 28.4362 58.0001C27.1395 57.9994 26.0046 57.2202 23.7349 55.6616L10.2015 46.3692Z" fill="url(#paint0_linear)"></path> <path d="M5.44664 24.3394L25.402 54.3362C25.4521 54.4115 25.5014 54.4855 25.5498 54.5583C26.8869 56.5665 27.5933 57.5776 28.6909 57.7811C29.7878 57.9844 30.8357 57.2996 32.8545 55.9157C32.929 55.8647 33.0048 55.8126 33.0819 55.7597L49.6613 44.3853C49.7774 44.3057 49.8913 44.2276 50.0029 44.1509C52.7273 42.2798 54.1009 41.2881 54.3947 39.8306C54.7005 38.3134 53.7244 36.8465 51.7724 33.9127L33.0071 5.70994C30.8571 2.4787 29.7821 0.863076 28.0772 0.546416C26.3723 0.229756 24.7458 1.34366 21.493 3.57143L7.73992 12.9905C4.5382 15.1833 2.93735 16.2797 2.60506 17.9241C2.27279 19.5684 3.33083 21.1589 5.44664 24.3394Z" fill="url(#paint1_linear)"></path> <path d="M5.44664 24.3391C3.33083 21.1586 2.27279 19.5681 2.60506 17.9238C2.93735 16.2794 7.73992 12.9902 7.73992 12.9902C7.73992 12.9902 17.4265 16.6857 26.5573 22.5284L26.8189 22.3487C27.5762 21.8281 27.955 21.5679 28.3878 21.5677C28.8205 21.5676 29.1993 21.8275 29.9569 22.3476L50.5148 36.4578C52.9578 38.1345 54.1793 38.9729 54.1792 40.135C54.1792 40.3107 54.1512 40.479 54.0954 40.6438C53.5104 41.7104 52.1932 42.6463 50.0028 44.1506L33.1464 55.7151C33.125 55.7299 33.1035 55.7446 33.0819 55.7594L32.8545 55.9155C30.8357 57.2993 29.7878 57.9842 28.6909 57.7808C28.5537 57.7554 28.4226 57.7173 28.2956 57.6663C27.4068 57.309 26.7198 56.3152 25.5498 54.558L5.44664 24.3391Z" fill="url(#paint2_linear)"></path> <path d="M25.7266 34.2106L10.6365 24.1475L7.11145 21.7886C4.26243 19.882 2.83793 18.9287 2.83205 17.5937C2.82787 16.6451 3.54186 15.8834 4.9719 14.8295L25.2204 1.08382C26.45 0.362478 27.3974 0.00136342 28.4202 3.85241e-06C29.4628 -0.00138213 30.4282 0.371207 31.6948 1.11727L49.4416 13.0937C51.8266 14.8038 53.0186 15.9885 53.0164 17.4872C53.0135 19.4897 50.8803 20.9257 46.614 23.7978L43.3106 26.0217L31.2251 34.1294C30.0924 34.8318 29.2912 35.1834 28.4172 35.1845C27.5743 35.1857 26.7983 34.8609 25.7266 34.2106Z" fill="url(#paint3_linear)"></path> <path d="M29.2616 0.0814218L45.5204 24.5172L43.2543 26.051L31.2196 34.1679C30.0918 34.871 29.2939 35.223 28.4236 35.2241C27.5842 35.2253 26.8115 34.9001 25.7444 34.2491L10.7179 24.1747L7.20767 21.8131C4.37066 19.9044 2.95216 18.95 2.94631 17.6135C2.94215 16.6638 3.65313 15.9013 5.07714 14.8462L25.2402 1.08504C26.4646 0.362885 27.4081 0.00136494 28.4266 3.85619e-06C28.7081 -0.000372296 28.9839 0.0267704 29.2616 0.0814218Z" fill="url(#paint4_linear)"></path> </g> <defs> <linearGradient id="paint0_linear" x1="2.15675" y1="40.5714" x2="27.6777" y2="59.9103" gradientUnits="userSpaceOnUse"> <stop stop-color="#F5BBCA"></stop> <stop offset="1" stop-color="#E87FF1"></stop> </linearGradient> <linearGradient id="paint1_linear" x1="12.7671" y1="10.5355" x2="52.722" y2="42.6816" gradientUnits="userSpaceOnUse"> <stop stop-color="#3516A7"></stop> <stop offset="1" stop-color="#5068D8"></stop> </linearGradient> <linearGradient id="paint2_linear" x1="2.15669" y1="19.4169" x2="31.2283" y2="64.352" gradientUnits="userSpaceOnUse"> <stop stop-color="#4122A3" stop-opacity="0"></stop> <stop offset="0.663965" stop-color="#6163E1" stop-opacity="0"></stop> <stop offset="1" stop-color="#E69FFF"></stop> </linearGradient> <linearGradient id="paint3_linear" x1="27.9242" y1="2.57416e-06" x2="50.1678" y2="32.3844" gradientUnits="userSpaceOnUse"> <stop stop-color="#5592F4"></stop> <stop offset="1" stop-color="#9EEEFF"></stop> </linearGradient> <linearGradient id="paint4_linear" x1="1.81949" y1="17.6406" x2="28.137" y2="37.5871" gradientUnits="userSpaceOnUse"> <stop stop-color="#1A6BE8"></stop> <stop offset="1" stop-color="#4D93FF"></stop> </linearGradient> <clipPath id="clip0"> <rect x="0.0732422" width="56.8483" height="58" fill="white"></rect> </clipPath> </defs> </svg>