<svg width="220" height="495" viewBox="0 0 220 495" fill="none" xmlns="http://www.w3.org/2000/svg">
<g clip-path="url(#clip0)">
<g filter="url(#filter0_d)">
<path d="M0 0H220V495H0V0Z" fill="white"/>
</g>
<path d="M61.5795 199.21V198.273H68.125V199.21H65.3807V207H64.3239V199.21H61.5795ZM71.4148 207.136C70.7841 207.136 70.2401 206.997 69.7827 206.719C69.3281 206.438 68.9773 206.045 68.7301 205.543C68.4858 205.037 68.3636 204.449 68.3636 203.778C68.3636 203.108 68.4858 202.517 68.7301 202.006C68.9773 201.491 69.321 201.091 69.7614 200.804C70.2045 200.514 70.7216 200.369 71.3125 200.369C71.6534 200.369 71.9901 200.426 72.3224 200.54C72.6548 200.653 72.9574 200.838 73.2301 201.094C73.5028 201.347 73.7202 201.682 73.8821 202.099C74.044 202.517 74.125 203.031 74.125 203.642V204.068H69.3736C69.3963 204.767 69.5938 205.303 69.9659 205.675C70.3409 206.047 70.8239 206.233 71.4148 206.233C71.8097 206.233 72.1491 206.148 72.4332 205.977C72.7173 205.807 72.9233 205.551 73.0511 205.21L74.0227 205.483C73.8693 205.977 73.5625 206.376 73.1023 206.68C72.642 206.984 72.0795 207.136 71.4148 207.136ZM69.3736 203.199H73.1023C73.1023 202.645 72.9403 202.186 72.6165 201.822C72.2926 201.456 71.858 201.273 71.3125 201.273C70.929 201.273 70.5966 201.362 70.3153 201.541C70.0341 201.72 69.8125 201.957 69.6506 202.253C69.4886 202.545 69.3963 202.861 69.3736 203.199ZM76.229 200.455L77.7972 203.131L79.3654 200.455H80.5245L78.4109 203.727L80.5245 207H79.3654L77.7972 204.46L76.229 207H75.07L77.1495 203.727L75.07 200.455H76.229ZM84.8061 200.455V201.307H83.4084V205.125C83.4084 205.409 83.4496 205.622 83.532 205.764C83.6172 205.903 83.7251 205.997 83.8558 206.045C83.9893 206.091 84.13 206.114 84.2777 206.114C84.3885 206.114 84.4794 206.108 84.5504 206.097C84.6214 206.082 84.6783 206.071 84.7209 206.062L84.9254 206.966C84.8572 206.991 84.7621 207.017 84.6399 207.043C84.5178 207.071 84.3629 207.085 84.1754 207.085C83.8913 207.085 83.6129 207.024 83.3402 206.902C83.0703 206.78 82.8459 206.594 82.6669 206.344C82.4908 206.094 82.4027 205.778 82.4027 205.398V201.307H81.4141V200.455H82.4027V198.886H83.4084V200.455H84.8061Z" fill="#333333"/>
<g opacity="0.8">
<g clip-path="url(#clip1)">
<path d="M50 196.5V196H49V196.5H50ZM49 206.5V207H50V206.5H49ZM49 196.5V206.5H50V196.5H49ZM48.1581 207.974C49.0291 207.684 49.9709 207.684 50.8419 207.974L51.1581 207.026C50.0818 206.667 48.9182 206.667 47.8419 207.026L48.1581 207.974ZM47.8419 195.974C48.9182 196.333 50.0818 196.333 51.1581 195.974L50.8419 195.026C49.9709 195.316 49.0291 195.316 48.1581 195.026L47.8419 195.974Z" fill="#333333"/>
<path d="M38.0431 205.297C37.9309 205.549 38.0446 205.845 38.2969 205.957C38.5493 206.069 38.8448 205.955 38.9569 205.703L38.0431 205.297ZM42.5 196.5L42.9569 196.297C42.8767 196.116 42.6976 196 42.5 196C42.3024 196 42.1233 196.116 42.0431 196.297L42.5 196.5ZM46.0431 205.703C46.1552 205.955 46.4507 206.069 46.7031 205.957C46.9554 205.845 47.0691 205.549 46.9569 205.297L46.0431 205.703ZM42.0431 196.703L46.0431 205.703L46.9569 205.297L42.9569 196.297L42.0431 196.703ZM38.9569 205.703L42.9569 196.703L42.0431 196.297L38.0431 205.297L38.9569 205.703ZM40 203H45V202H40V203Z" fill="#333333"/>
</g>
</g>
<path d="M62.0568 237V228.273H65.0057C65.6875 228.273 66.2472 228.389 66.6847 228.622C67.1222 228.852 67.446 229.169 67.6562 229.572C67.8665 229.976 67.9716 230.435 67.9716 230.949C67.9716 231.528 67.8381 232.034 67.571 232.466C67.3068 232.895 66.8963 233.205 66.3395 233.395L68.3125 237H67.0852L65.2443 233.587C65.1733 233.589 65.0994 233.591 65.0227 233.591H63.1136V237H62.0568ZM63.1136 232.636H64.9886C65.6875 232.636 66.1861 232.486 66.4844 232.185C66.7827 231.884 66.9318 231.472 66.9318 230.949C66.9318 230.423 66.7813 230.003 66.4801 229.688C66.1818 229.369 65.679 229.21 64.9716 229.21H63.1136V232.636ZM72.2702 237.136C71.6396 237.136 71.0955 236.997 70.6381 236.719C70.1836 236.438 69.8327 236.045 69.5856 235.543C69.3413 235.037 69.2191 234.449 69.2191 233.778C69.2191 233.108 69.3413 232.517 69.5856 232.006C69.8327 231.491 70.1765 231.091 70.6168 230.804C71.06 230.514 71.5771 230.369 72.168 230.369C72.5089 230.369 72.8455 230.426 73.1779 230.54C73.5103 230.653 73.8129 230.838 74.0856 231.094C74.3583 231.347 74.5756 231.682 74.7376 232.099C74.8995 232.517 74.9805 233.031 74.9805 233.642V234.068H70.229C70.2518 234.767 70.4492 235.303 70.8214 235.675C71.1964 236.047 71.6793 236.233 72.2702 236.233C72.6651 236.233 73.0046 236.148 73.2887 235.977C73.5728 235.807 73.7788 235.551 73.9066 235.21L74.8782 235.483C74.7248 235.977 74.418 236.376 73.9577 236.68C73.4975 236.984 72.935 237.136 72.2702 237.136ZM70.229 233.199H73.9577C73.9577 232.645 73.7958 232.186 73.4719 231.822C73.1481 231.456 72.7134 231.273 72.168 231.273C71.7844 231.273 71.4521 231.362 71.1708 231.541C70.8896 231.72 70.668 231.957 70.506 232.253C70.3441 232.545 70.2518 232.861 70.229 233.199ZM79.1694 237.136C78.5558 237.136 78.0273 236.991 77.5842 236.702C77.141 236.412 76.8001 236.013 76.5614 235.504C76.3228 234.996 76.2035 234.415 76.2035 233.761C76.2035 233.097 76.3256 232.51 76.57 232.001C76.8171 231.49 77.1609 231.091 77.6012 230.804C78.0444 230.514 78.5614 230.369 79.1523 230.369C79.6126 230.369 80.0273 230.455 80.3967 230.625C80.766 230.795 81.0685 231.034 81.3043 231.341C81.5401 231.648 81.6864 232.006 81.7433 232.415H80.7376C80.6609 232.116 80.4904 231.852 80.2262 231.622C79.9648 231.389 79.6126 231.273 79.1694 231.273C78.5813 231.273 78.1069 231.497 77.7461 231.946C77.3881 232.392 77.2092 232.986 77.2092 233.727C77.2092 234.486 77.3867 235.094 77.7418 235.551C78.0969 236.006 78.5728 236.233 79.1694 236.233C79.5614 236.233 79.8967 236.132 80.1751 235.93C80.4563 235.729 80.6438 235.449 80.7376 235.091H81.7433C81.6864 235.477 81.5458 235.825 81.3214 236.135C81.0998 236.442 80.8058 236.686 80.4393 236.868C80.0756 237.047 79.6523 237.136 79.1694 237.136ZM86.06 230.455V231.307H84.6623V235.125C84.6623 235.409 84.7035 235.622 84.7859 235.764C84.8711 235.903 84.979 235.997 85.1097 236.045C85.2433 236.091 85.3839 236.114 85.5316 236.114C85.6424 236.114 85.7333 236.108 85.8043 236.097C85.8754 236.082 85.9322 236.071 85.9748 236.062L86.1793 236.966C86.1112 236.991 86.016 237.017 85.8938 237.043C85.7717 237.071 85.6168 237.085 85.4293 237.085C85.1452 237.085 84.8668 237.024 84.5941 236.902C84.3242 236.78 84.0998 236.594 83.9208 236.344C83.7447 236.094 83.6566 235.778 83.6566 235.398V231.307H82.668V230.455H83.6566V228.886H84.6623V230.455H86.06ZM89.4989 237.153C89.0842 237.153 88.7077 237.075 88.3697 236.919C88.0316 236.76 87.7631 236.531 87.5643 236.233C87.3654 235.932 87.266 235.568 87.266 235.142C87.266 234.767 87.3398 234.463 87.4876 234.23C87.6353 233.994 87.8327 233.81 88.0799 233.676C88.3271 233.543 88.5998 233.443 88.8981 233.378C89.1992 233.31 89.5018 233.256 89.8058 233.216C90.2035 233.165 90.5259 233.126 90.7731 233.101C91.0231 233.072 91.2049 233.026 91.3185 232.96C91.435 232.895 91.4933 232.781 91.4933 232.619V232.585C91.4933 232.165 91.3782 231.838 91.1481 231.605C90.9208 231.372 90.5756 231.256 90.1126 231.256C89.6325 231.256 89.256 231.361 88.9833 231.571C88.7106 231.781 88.5188 232.006 88.408 232.244L87.4535 231.903C87.6239 231.506 87.8512 231.196 88.1353 230.974C88.4222 230.75 88.7347 230.594 89.0728 230.506C89.4137 230.415 89.7489 230.369 90.0785 230.369C90.2887 230.369 90.5302 230.395 90.8029 230.446C91.0785 230.494 91.3441 230.595 91.5998 230.749C91.8583 230.902 92.0728 231.134 92.2433 231.443C92.4137 231.753 92.4989 232.168 92.4989 232.688V237H91.4933V236.114H91.4421C91.3739 236.256 91.2603 236.408 91.1012 236.57C90.9421 236.732 90.7305 236.869 90.4663 236.983C90.2021 237.097 89.8796 237.153 89.4989 237.153ZM89.6523 236.25C90.0501 236.25 90.3853 236.172 90.658 236.016C90.9336 235.859 91.141 235.658 91.2802 235.411C91.4222 235.163 91.4933 234.903 91.4933 234.631V233.71C91.4506 233.761 91.3569 233.808 91.212 233.851C91.07 233.891 90.9052 233.926 90.7177 233.957C90.533 233.986 90.3526 234.011 90.1765 234.034C90.0032 234.054 89.8626 234.071 89.7546 234.085C89.4933 234.119 89.2489 234.175 89.0217 234.251C88.7972 234.325 88.6154 234.437 88.4762 234.588C88.3398 234.736 88.2717 234.937 88.2717 235.193C88.2717 235.543 88.4009 235.807 88.6594 235.986C88.9208 236.162 89.2518 236.25 89.6523 236.25ZM95.3402 233.062V237H94.3345V230.455H95.3061V231.477H95.3913C95.5447 231.145 95.7777 230.878 96.0902 230.676C96.4027 230.472 96.8061 230.369 97.3004 230.369C97.9624 230.369 98.4964 230.572 98.9027 230.979C99.3118 231.385 99.5163 232.006 99.5163 232.841V237H98.5107V232.909C98.5107 232.395 98.3771 231.994 98.1101 231.707C97.843 231.418 97.4766 231.273 97.0107 231.273C96.5305 231.273 96.1314 231.429 95.8132 231.741C95.4979 232.051 95.3402 232.491 95.3402 233.062ZM103.996 239.591C103.266 239.591 102.688 239.457 102.262 239.19C101.838 238.926 101.525 238.622 101.32 238.278L102.121 237.716C102.212 237.835 102.327 237.972 102.466 238.125C102.605 238.281 102.796 238.416 103.037 238.53C103.282 238.646 103.601 238.705 103.996 238.705C104.525 238.705 104.961 238.577 105.304 238.321C105.648 238.065 105.82 237.665 105.82 237.119V235.79H105.735C105.661 235.909 105.556 236.057 105.419 236.233C105.286 236.406 105.093 236.561 104.84 236.697C104.59 236.831 104.252 236.898 103.826 236.898C103.297 236.898 102.823 236.773 102.402 236.523C101.985 236.273 101.654 235.909 101.409 235.432C101.168 234.955 101.047 234.375 101.047 233.693C101.047 233.023 101.165 232.439 101.401 231.942C101.637 231.442 101.965 231.055 102.385 230.783C102.806 230.507 103.292 230.369 103.843 230.369C104.269 230.369 104.607 230.44 104.857 230.582C105.11 230.722 105.303 230.881 105.436 231.06C105.573 231.236 105.678 231.381 105.752 231.494H105.854V230.455H106.826V237.188C106.826 237.75 106.698 238.207 106.442 238.56C106.189 238.915 105.848 239.175 105.419 239.339C104.993 239.507 104.519 239.591 103.996 239.591ZM103.962 235.994C104.567 235.994 105.03 235.79 105.351 235.381C105.675 234.969 105.837 234.401 105.837 233.676C105.837 232.969 105.678 232.392 105.36 231.946C105.042 231.497 104.576 231.273 103.962 231.273C103.536 231.273 103.181 231.381 102.897 231.597C102.615 231.812 102.404 232.102 102.262 232.466C102.123 232.83 102.053 233.233 102.053 233.676C102.053 234.358 102.213 234.915 102.534 235.347C102.855 235.778 103.331 235.994 103.962 235.994ZM109.672 228.273V237H108.667V228.273H109.672ZM114.259 237.136C113.628 237.136 113.084 236.997 112.626 236.719C112.172 236.438 111.821 236.045 111.574 235.543C111.33 235.037 111.207 234.449 111.207 233.778C111.207 233.108 111.33 232.517 111.574 232.006C111.821 231.491 112.165 231.091 112.605 230.804C113.048 230.514 113.565 230.369 114.156 230.369C114.497 230.369 114.834 230.426 115.166 230.54C115.499 230.653 115.801 230.838 116.074 231.094C116.347 231.347 116.564 231.682 116.726 232.099C116.888 232.517 116.969 233.031 116.969 233.642V234.068H112.217C112.24 234.767 112.438 235.303 112.81 235.675C113.185 236.047 113.668 236.233 114.259 236.233C114.653 236.233 114.993 236.148 115.277 235.977C115.561 235.807 115.767 235.551 115.895 235.21L116.866 235.483C116.713 235.977 116.406 236.376 115.946 236.68C115.486 236.984 114.923 237.136 114.259 237.136ZM112.217 233.199H115.946C115.946 232.645 115.784 232.186 115.46 231.822C115.136 231.456 114.702 231.273 114.156 231.273C113.773 231.273 113.44 231.362 113.159 231.541C112.878 231.72 112.656 231.957 112.494 232.253C112.332 232.545 112.24 232.861 112.217 233.199Z" fill="#333333"/>
<path opacity="0.8" d="M39 225.5H50C50.2761 225.5 50.5 225.724 50.5 226V237C50.5 237.276 50.2761 237.5 50 237.5H39C38.7239 237.5 38.5 237.276 38.5 237V226C38.5 225.724 38.7239 225.5 39 225.5Z" stroke="#333333"/>
<path d="M63.1136 258.273V267H62.0568V258.273H63.1136ZM65.0962 267V260.455H66.0678V261.477H66.1531C66.2894 261.128 66.5096 260.857 66.8136 260.663C67.1175 260.467 67.4826 260.369 67.9087 260.369C68.3406 260.369 68.6999 260.467 68.9869 260.663C69.2766 260.857 69.5025 261.128 69.6644 261.477H69.7326C69.9002 261.139 70.1516 260.871 70.4869 260.672C70.8221 260.47 71.2241 260.369 71.6928 260.369C72.2781 260.369 72.7567 260.553 73.1289 260.919C73.5011 261.283 73.6871 261.849 73.6871 262.619V267H72.6815V262.619C72.6815 262.136 72.5494 261.791 72.2852 261.584C72.021 261.376 71.7099 261.273 71.3519 261.273C70.8917 261.273 70.5352 261.412 70.2823 261.69C70.0295 261.966 69.9031 262.315 69.9031 262.739V267H68.8803V262.517C68.8803 262.145 68.7596 261.845 68.5181 261.618C68.2766 261.388 67.9656 261.273 67.5849 261.273C67.3235 261.273 67.0792 261.342 66.8519 261.482C66.6275 261.621 66.4457 261.814 66.3065 262.061C66.1701 262.305 66.1019 262.588 66.1019 262.909V267H65.0962ZM77.4521 267.153C77.0373 267.153 76.6609 267.075 76.3228 266.919C75.9847 266.76 75.7163 266.531 75.5174 266.233C75.3185 265.932 75.2191 265.568 75.2191 265.142C75.2191 264.767 75.293 264.463 75.4407 264.23C75.5884 263.994 75.7859 263.81 76.033 263.676C76.2802 263.543 76.5529 263.443 76.8512 263.378C77.1523 263.31 77.4549 263.256 77.7589 263.216C78.1566 263.165 78.479 263.126 78.7262 263.101C78.9762 263.072 79.158 263.026 79.2717 262.96C79.3881 262.895 79.4464 262.781 79.4464 262.619V262.585C79.4464 262.165 79.3313 261.838 79.1012 261.605C78.8739 261.372 78.5288 261.256 78.0657 261.256C77.5856 261.256 77.2092 261.361 76.9364 261.571C76.6637 261.781 76.4719 262.006 76.3612 262.244L75.4066 261.903C75.5771 261.506 75.8043 261.196 76.0884 260.974C76.3754 260.75 76.6879 260.594 77.0259 260.506C77.3668 260.415 77.7021 260.369 78.0316 260.369C78.2418 260.369 78.4833 260.395 78.756 260.446C79.0316 260.494 79.2972 260.595 79.5529 260.749C79.8114 260.902 80.0259 261.134 80.1964 261.443C80.3668 261.753 80.4521 262.168 80.4521 262.688V267H79.4464V266.114H79.3952C79.3271 266.256 79.2134 266.408 79.0543 266.57C78.8952 266.732 78.6836 266.869 78.4194 266.983C78.1552 267.097 77.8327 267.153 77.4521 267.153ZM77.6055 266.25C78.0032 266.25 78.3384 266.172 78.6112 266.016C78.8867 265.859 79.0941 265.658 79.2333 265.411C79.3754 265.163 79.4464 264.903 79.4464 264.631V263.71C79.4038 263.761 79.31 263.808 79.1651 263.851C79.0231 263.891 78.8583 263.926 78.6708 263.957C78.4862 263.986 78.3058 264.011 78.1296 264.034C77.9563 264.054 77.8157 264.071 77.7077 264.085C77.4464 264.119 77.2021 264.175 76.9748 264.251C76.7504 264.325 76.5685 264.437 76.4293 264.588C76.293 264.736 76.2248 264.937 76.2248 265.193C76.2248 265.543 76.354 265.807 76.6126 265.986C76.8739 266.162 77.2049 266.25 77.6055 266.25ZM84.9297 269.591C84.1996 269.591 83.6214 269.457 83.1953 269.19C82.772 268.926 82.4581 268.622 82.2536 268.278L83.0547 267.716C83.1456 267.835 83.2607 267.972 83.3999 268.125C83.5391 268.281 83.7294 268.416 83.9709 268.53C84.2152 268.646 84.5348 268.705 84.9297 268.705C85.4581 268.705 85.8942 268.577 86.2379 268.321C86.5817 268.065 86.7536 267.665 86.7536 267.119V265.79H86.6683C86.5945 265.909 86.4893 266.057 86.353 266.233C86.2195 266.406 86.0263 266.561 85.7734 266.697C85.5234 266.831 85.1854 266.898 84.7592 266.898C84.2308 266.898 83.7564 266.773 83.3359 266.523C82.9183 266.273 82.5874 265.909 82.343 265.432C82.1016 264.955 81.9808 264.375 81.9808 263.693C81.9808 263.023 82.0987 262.439 82.3345 261.942C82.5703 261.442 82.8984 261.055 83.3189 260.783C83.7393 260.507 84.2251 260.369 84.7763 260.369C85.2024 260.369 85.5405 260.44 85.7905 260.582C86.0433 260.722 86.2365 260.881 86.37 261.06C86.5064 261.236 86.6115 261.381 86.6854 261.494H86.7876V260.455H87.7592V267.188C87.7592 267.75 87.6314 268.207 87.3757 268.56C87.1229 268.915 86.782 269.175 86.353 269.339C85.9268 269.507 85.4524 269.591 84.9297 269.591ZM84.8956 265.994C85.5007 265.994 85.9638 265.79 86.2848 265.381C86.6087 264.969 86.7706 264.401 86.7706 263.676C86.7706 262.969 86.6115 262.392 86.2933 261.946C85.9751 261.497 85.5092 261.273 84.8956 261.273C84.4695 261.273 84.1143 261.381 83.8303 261.597C83.549 261.812 83.3374 262.102 83.1953 262.466C83.0561 262.83 82.9865 263.233 82.9865 263.676C82.9865 264.358 83.147 264.915 83.468 265.347C83.7891 265.778 84.2649 265.994 84.8956 265.994ZM92.3445 267.136C91.7138 267.136 91.1697 266.997 90.7124 266.719C90.2578 266.438 89.907 266.045 89.6598 265.543C89.4155 265.037 89.2933 264.449 89.2933 263.778C89.2933 263.108 89.4155 262.517 89.6598 262.006C89.907 261.491 90.2507 261.091 90.6911 260.804C91.1342 260.514 91.6513 260.369 92.2422 260.369C92.5831 260.369 92.9197 260.426 93.2521 260.54C93.5845 260.653 93.8871 260.838 94.1598 261.094C94.4325 261.347 94.6499 261.682 94.8118 262.099C94.9737 262.517 95.0547 263.031 95.0547 263.642V264.068H90.3033C90.326 264.767 90.5234 265.303 90.8956 265.675C91.2706 266.047 91.7536 266.233 92.3445 266.233C92.7393 266.233 93.0788 266.148 93.3629 265.977C93.647 265.807 93.853 265.551 93.9808 265.21L94.9524 265.483C94.799 265.977 94.4922 266.376 94.032 266.68C93.5717 266.984 93.0092 267.136 92.3445 267.136ZM90.3033 263.199H94.032C94.032 262.645 93.87 262.186 93.5462 261.822C93.2223 261.456 92.7876 261.273 92.2422 261.273C91.8587 261.273 91.5263 261.362 91.245 261.541C90.9638 261.72 90.7422 261.957 90.5803 262.253C90.4183 262.545 90.326 262.861 90.3033 263.199Z" fill="#333333"/>
<g opacity="0.8">
<path d="M38.5 257.167C38.5 256.157 39.166 255.5 39.8056 255.5H49.1944C49.834 255.5 50.5 256.157 50.5 257.167V265.833C50.5 266.843 49.834 267.5 49.1944 267.5H39.8056C39.166 267.5 38.5 266.843 38.5 265.833V257.167Z" stroke="#333333"/>
<path d="M45.2322 261.318L45.5504 261.636L45.5504 261.636L45.2322 261.318ZM43.1818 262.732L42.8636 263.05L43.5 263.686L43.8182 263.368L43.1818 262.732ZM48.7678 261.318L48.4496 261.636L48.7678 261.318ZM49.6818 262.868L50 263.186L50.6364 262.55L50.3182 262.232L49.6818 262.868ZM40.2461 263.012L40.5342 263.357L40.5342 263.357L40.2461 263.012ZM38.7119 263.704L38.3662 263.992L38.9424 264.684L39.2881 264.396L38.7119 263.704ZM43.6818 263.868L44 264.186L44.6364 263.55L44.3182 263.232L43.6818 263.868ZM43.6144 263.164L43.2962 263.483L43.2962 263.483L43.6144 263.164ZM44.914 261L43.1818 262.732L43.8182 263.368L45.5504 261.636L44.914 261ZM48.4496 261.636L49.6818 262.868L50.3182 262.232L49.086 261L48.4496 261.636ZM39.958 262.666L38.7119 263.704L39.2881 264.396L40.5342 263.357L39.958 262.666ZM44.3182 263.232L43.9326 262.846L43.2962 263.483L43.6818 263.868L44.3182 263.232ZM40.5342 263.357C41.3487 262.679 42.5464 262.733 43.2962 263.483L43.9326 262.846C42.8537 261.767 41.1301 261.689 39.958 262.666L40.5342 263.357ZM45.5504 261.636C46.351 260.835 47.649 260.835 48.4496 261.636L49.086 261C47.9339 259.848 46.0661 259.848 44.914 261L45.5504 261.636Z" fill="#333333"/>
<circle cx="42" cy="259" r="1" fill="#9A9A9A"/>
</g>
<path d="M61.3068 378.273H62.517L64.9375 382.347H65.0398L67.4602 378.273H68.6705L65.517 383.403V387H64.4602V383.403L61.3068 378.273ZM71.6342 387.136C71.0433 387.136 70.5249 386.996 70.0788 386.714C69.6357 386.433 69.2891 386.04 69.0391 385.534C68.7919 385.028 68.6683 384.437 68.6683 383.761C68.6683 383.08 68.7919 382.484 69.0391 381.976C69.2891 381.467 69.6357 381.072 70.0788 380.791C70.5249 380.51 71.0433 380.369 71.6342 380.369C72.2251 380.369 72.7422 380.51 73.1854 380.791C73.6314 381.072 73.978 381.467 74.2251 381.976C74.4751 382.484 74.6001 383.08 74.6001 383.761C74.6001 384.437 74.4751 385.028 74.2251 385.534C73.978 386.04 73.6314 386.433 73.1854 386.714C72.7422 386.996 72.2251 387.136 71.6342 387.136ZM71.6342 386.233C72.0831 386.233 72.4524 386.118 72.7422 385.888C73.032 385.658 73.2464 385.355 73.3857 384.98C73.5249 384.605 73.5945 384.199 73.5945 383.761C73.5945 383.324 73.5249 382.916 73.3857 382.538C73.2464 382.161 73.032 381.855 72.7422 381.622C72.4524 381.389 72.0831 381.273 71.6342 381.273C71.1854 381.273 70.8161 381.389 70.5263 381.622C70.2365 381.855 70.022 382.161 69.8828 382.538C69.7436 382.916 69.674 383.324 69.674 383.761C69.674 384.199 69.7436 384.605 69.8828 384.98C70.022 385.355 70.2365 385.658 70.5263 385.888C70.8161 386.118 71.1854 386.233 71.6342 386.233ZM80.2603 384.324V380.455H81.266V387H80.2603V385.892H80.1921C80.0387 386.224 79.8001 386.507 79.4762 386.74C79.1523 386.97 78.7433 387.085 78.2489 387.085C77.6353 387.085 77.1296 386.882 76.7319 386.476C76.3342 386.07 76.1353 385.449 76.1353 384.614V380.455H77.141V384.545C77.141 385.023 77.2745 385.403 77.5415 385.688C77.8114 385.972 78.1552 386.114 78.5728 386.114C78.8228 386.114 79.0771 386.05 79.3356 385.922C79.5969 385.794 79.8157 385.598 79.9918 385.334C80.1708 385.07 80.2603 384.733 80.2603 384.324ZM85.9545 380.455V381.307H84.5568V385.125C84.5568 385.409 84.598 385.622 84.6804 385.764C84.7656 385.903 84.8736 385.997 85.0043 386.045C85.1378 386.091 85.2784 386.114 85.4261 386.114C85.5369 386.114 85.6278 386.108 85.6989 386.097C85.7699 386.082 85.8267 386.071 85.8693 386.062L86.0739 386.966C86.0057 386.991 85.9105 387.017 85.7884 387.043C85.6662 387.071 85.5114 387.085 85.3239 387.085C85.0398 387.085 84.7614 387.024 84.4886 386.902C84.2188 386.78 83.9943 386.594 83.8153 386.344C83.6392 386.094 83.5511 385.778 83.5511 385.398V381.307H82.5625V380.455H83.5511V378.886H84.5568V380.455H85.9545ZM91.5923 384.324V380.455H92.598V387H91.5923V385.892H91.5241C91.3707 386.224 91.1321 386.507 90.8082 386.74C90.4844 386.97 90.0753 387.085 89.581 387.085C88.9673 387.085 88.4616 386.882 88.0639 386.476C87.6662 386.07 87.4673 385.449 87.4673 384.614V380.455H88.473V384.545C88.473 385.023 88.6065 385.403 88.8736 385.688C89.1435 385.972 89.4872 386.114 89.9048 386.114C90.1548 386.114 90.4091 386.05 90.6676 385.922C90.929 385.794 91.1477 385.598 91.3239 385.334C91.5028 385.07 91.5923 384.733 91.5923 384.324ZM94.5763 387V378.273H95.582V381.494H95.6673C95.7411 381.381 95.8434 381.236 95.9741 381.06C96.1076 380.881 96.2979 380.722 96.5451 380.582C96.7951 380.44 97.1332 380.369 97.5593 380.369C98.1104 380.369 98.5962 380.507 99.0167 380.783C99.4371 381.058 99.7653 381.449 100.001 381.955C100.237 382.46 100.355 383.057 100.355 383.744C100.355 384.438 100.237 385.038 100.001 385.547C99.7653 386.053 99.4386 386.445 99.021 386.723C98.6033 386.999 98.1218 387.136 97.5763 387.136C97.1559 387.136 96.8192 387.067 96.5664 386.928C96.3136 386.786 96.119 386.625 95.9826 386.446C95.8462 386.264 95.7411 386.114 95.6673 385.994H95.5479V387H94.5763ZM95.565 383.727C95.565 384.469 95.7255 385.072 96.0465 385.538C96.3704 386.001 96.8349 386.233 97.44 386.233C97.8604 386.233 98.2113 386.122 98.4925 385.901C98.7766 385.676 98.9897 385.375 99.1317 384.997C99.2766 384.616 99.3491 384.193 99.3491 383.727C99.3491 383.267 99.2781 382.852 99.136 382.483C98.9968 382.111 98.7852 381.817 98.5011 381.601C98.2198 381.382 97.8661 381.273 97.44 381.273C96.8263 381.273 96.3604 381.499 96.0423 381.95C95.7241 382.402 95.565 382.994 95.565 383.727ZM104.637 387.136C104.007 387.136 103.463 386.997 103.005 386.719C102.551 386.438 102.2 386.045 101.953 385.543C101.708 385.037 101.586 384.449 101.586 383.778C101.586 383.108 101.708 382.517 101.953 382.006C102.2 381.491 102.544 381.091 102.984 380.804C103.427 380.514 103.944 380.369 104.535 380.369C104.876 380.369 105.213 380.426 105.545 380.54C105.877 380.653 106.18 380.838 106.453 381.094C106.725 381.347 106.943 381.682 107.105 382.099C107.267 382.517 107.348 383.031 107.348 383.642V384.068H102.596C102.619 384.767 102.816 385.303 103.189 385.675C103.564 386.047 104.047 386.233 104.637 386.233C105.032 386.233 105.372 386.148 105.656 385.977C105.94 385.807 106.146 385.551 106.274 385.21L107.245 385.483C107.092 385.977 106.785 386.376 106.325 386.68C105.865 386.984 105.302 387.136 104.637 387.136ZM102.596 383.199H106.325C106.325 382.645 106.163 382.186 105.839 381.822C105.515 381.456 105.081 381.273 104.535 381.273C104.152 381.273 103.819 381.362 103.538 381.541C103.257 381.72 103.035 381.957 102.873 382.253C102.711 382.545 102.619 382.861 102.596 383.199Z" fill="#333333"/>
<g opacity="0.8">
<path d="M44.5 387.5C41.1863 387.5 38.5 384.814 38.5 381.5C38.5 378.186 41.1863 375.5 44.5 375.5C47.8137 375.5 50.5 378.186 50.5 381.5C50.5 384.814 47.8137 387.5 44.5 387.5Z" stroke="#333333"/>
<path d="M47.1222 380.886C47.5488 381.184 47.5488 381.816 47.1223 382.114L44.1801 384.174C43.683 384.522 43 384.166 43 383.56L43 379.44C43 378.834 43.683 378.478 44.1801 378.826L47.1222 380.886Z" fill="#333333"/>
</g>
<path d="M63.1136 438.273V447H62.0568V438.273H63.1136ZM67.7553 447.136C67.1417 447.136 66.6133 446.991 66.1701 446.702C65.7269 446.412 65.386 446.013 65.1474 445.504C64.9087 444.996 64.7894 444.415 64.7894 443.761C64.7894 443.097 64.9116 442.51 65.1559 442.001C65.4031 441.49 65.7468 441.091 66.1871 440.804C66.6303 440.514 67.1474 440.369 67.7383 440.369C68.1985 440.369 68.6133 440.455 68.9826 440.625C69.3519 440.795 69.6545 441.034 69.8903 441.341C70.1261 441.648 70.2724 442.006 70.3292 442.415H69.3235C69.2468 442.116 69.0763 441.852 68.8121 441.622C68.5508 441.389 68.1985 441.273 67.7553 441.273C67.1673 441.273 66.6928 441.497 66.332 441.946C65.9741 442.392 65.7951 442.986 65.7951 443.727C65.7951 444.486 65.9727 445.094 66.3278 445.551C66.6829 446.006 67.1587 446.233 67.7553 446.233C68.1474 446.233 68.4826 446.132 68.761 445.93C69.0423 445.729 69.2298 445.449 69.3235 445.091H70.3292C70.2724 445.477 70.1317 445.825 69.9073 446.135C69.6857 446.442 69.3917 446.686 69.0252 446.868C68.6616 447.047 68.2383 447.136 67.7553 447.136ZM74.4585 447.136C73.8675 447.136 73.3491 446.996 72.9031 446.714C72.4599 446.433 72.1133 446.04 71.8633 445.534C71.6161 445.028 71.4925 444.437 71.4925 443.761C71.4925 443.08 71.6161 442.484 71.8633 441.976C72.1133 441.467 72.4599 441.072 72.9031 440.791C73.3491 440.51 73.8675 440.369 74.4585 440.369C75.0494 440.369 75.5664 440.51 76.0096 440.791C76.4556 441.072 76.8022 441.467 77.0494 441.976C77.2994 442.484 77.4244 443.08 77.4244 443.761C77.4244 444.437 77.2994 445.028 77.0494 445.534C76.8022 446.04 76.4556 446.433 76.0096 446.714C75.5664 446.996 75.0494 447.136 74.4585 447.136ZM74.4585 446.233C74.9073 446.233 75.2766 446.118 75.5664 445.888C75.8562 445.658 76.0707 445.355 76.2099 444.98C76.3491 444.605 76.4187 444.199 76.4187 443.761C76.4187 443.324 76.3491 442.916 76.2099 442.538C76.0707 442.161 75.8562 441.855 75.5664 441.622C75.2766 441.389 74.9073 441.273 74.4585 441.273C74.0096 441.273 73.6403 441.389 73.3505 441.622C73.0607 441.855 72.8462 442.161 72.707 442.538C72.5678 442.916 72.4982 443.324 72.4982 443.761C72.4982 444.199 72.5678 444.605 72.707 444.98C72.8462 445.355 73.0607 445.658 73.3505 445.888C73.6403 446.118 74.0096 446.233 74.4585 446.233ZM79.9652 443.062V447H78.9595V440.455H79.9311V441.477H80.0163C80.1697 441.145 80.4027 440.878 80.7152 440.676C81.0277 440.472 81.4311 440.369 81.9254 440.369C82.5874 440.369 83.1214 440.572 83.5277 440.979C83.9368 441.385 84.1413 442.006 84.1413 442.841V447H83.1357V442.909C83.1357 442.395 83.0021 441.994 82.7351 441.707C82.468 441.418 82.1016 441.273 81.6357 441.273C81.1555 441.273 80.7564 441.429 80.4382 441.741C80.1229 442.051 79.9652 442.491 79.9652 443.062ZM86.712 447.068C86.5018 447.068 86.3214 446.993 86.1708 446.842C86.0202 446.692 85.945 446.511 85.945 446.301C85.945 446.091 86.0202 445.911 86.1708 445.76C86.3214 445.609 86.5018 445.534 86.712 445.534C86.9222 445.534 87.1026 445.609 87.2532 445.76C87.4038 445.911 87.479 446.091 87.479 446.301C87.479 446.511 87.4038 446.692 87.2532 446.842C87.1026 446.993 86.9222 447.068 86.712 447.068ZM86.712 442.21C86.5018 442.21 86.3214 442.135 86.1708 441.984C86.0202 441.834 85.945 441.653 85.945 441.443C85.945 441.233 86.0202 441.053 86.1708 440.902C86.3214 440.751 86.5018 440.676 86.712 440.676C86.9222 440.676 87.1026 440.751 87.2532 440.902C87.4038 441.053 87.479 441.233 87.479 441.443C87.479 441.653 87.4038 441.834 87.2532 441.984C87.1026 442.135 86.9222 442.21 86.712 442.21ZM92.7951 447V438.273H93.8519V442.159H98.5053V438.273H99.5621V447H98.5053V443.097H93.8519V447H92.7951ZM104.286 447.136C103.655 447.136 103.111 446.997 102.654 446.719C102.199 446.438 101.848 446.045 101.601 445.543C101.357 445.037 101.235 444.449 101.235 443.778C101.235 443.108 101.357 442.517 101.601 442.006C101.848 441.491 102.192 441.091 102.632 440.804C103.076 440.514 103.593 440.369 104.184 440.369C104.525 440.369 104.861 440.426 105.194 440.54C105.526 440.653 105.828 440.838 106.101 441.094C106.374 441.347 106.591 441.682 106.753 442.099C106.915 442.517 106.996 443.031 106.996 443.642V444.068H102.245C102.267 444.767 102.465 445.303 102.837 445.675C103.212 446.047 103.695 446.233 104.286 446.233C104.681 446.233 105.02 446.148 105.304 445.977C105.588 445.807 105.794 445.551 105.922 445.21L106.894 445.483C106.74 445.977 106.434 446.376 105.973 446.68C105.513 446.984 104.951 447.136 104.286 447.136ZM102.245 443.199H105.973C105.973 442.645 105.811 442.186 105.488 441.822C105.164 441.456 104.729 441.273 104.184 441.273C103.8 441.273 103.468 441.362 103.186 441.541C102.905 441.72 102.684 441.957 102.522 442.253C102.36 442.545 102.267 442.861 102.245 443.199ZM110.452 447.153C110.037 447.153 109.661 447.075 109.323 446.919C108.985 446.76 108.716 446.531 108.517 446.233C108.319 445.932 108.219 445.568 108.219 445.142C108.219 444.767 108.293 444.463 108.441 444.23C108.588 443.994 108.786 443.81 109.033 443.676C109.28 443.543 109.553 443.443 109.851 443.378C110.152 443.31 110.455 443.256 110.759 443.216C111.157 443.165 111.479 443.126 111.726 443.101C111.976 443.072 112.158 443.026 112.272 442.96C112.388 442.895 112.446 442.781 112.446 442.619V442.585C112.446 442.165 112.331 441.838 112.101 441.605C111.874 441.372 111.529 441.256 111.066 441.256C110.586 441.256 110.209 441.361 109.936 441.571C109.664 441.781 109.472 442.006 109.361 442.244L108.407 441.903C108.577 441.506 108.804 441.196 109.088 440.974C109.375 440.75 109.688 440.594 110.026 440.506C110.367 440.415 110.702 440.369 111.032 440.369C111.242 440.369 111.483 440.395 111.756 440.446C112.032 440.494 112.297 440.595 112.553 440.749C112.811 440.902 113.026 441.134 113.196 441.443C113.367 441.753 113.452 442.168 113.452 442.688V447H112.446V446.114H112.395C112.327 446.256 112.213 446.408 112.054 446.57C111.895 446.732 111.684 446.869 111.419 446.983C111.155 447.097 110.833 447.153 110.452 447.153ZM110.605 446.25C111.003 446.25 111.338 446.172 111.611 446.016C111.887 445.859 112.094 445.658 112.233 445.411C112.375 445.163 112.446 444.903 112.446 444.631V443.71C112.404 443.761 112.31 443.808 112.165 443.851C112.023 443.891 111.858 443.926 111.671 443.957C111.486 443.986 111.306 444.011 111.13 444.034C110.956 444.054 110.816 444.071 110.708 444.085C110.446 444.119 110.202 444.175 109.975 444.251C109.75 444.325 109.569 444.437 109.429 444.588C109.293 444.736 109.225 444.937 109.225 445.193C109.225 445.543 109.354 445.807 109.613 445.986C109.874 446.162 110.205 446.25 110.605 446.25ZM115.288 447V440.455H116.259V441.443H116.327C116.447 441.119 116.663 440.857 116.975 440.655C117.288 440.453 117.64 440.352 118.032 440.352C118.106 440.352 118.198 440.354 118.309 440.357C118.42 440.359 118.504 440.364 118.56 440.369V441.392C118.526 441.384 118.448 441.371 118.326 441.354C118.207 441.334 118.08 441.324 117.947 441.324C117.469 441.324 117.075 441.469 116.762 441.759C116.45 442.048 116.293 442.415 116.293 442.858V447H115.288ZM123.009 440.455V441.307H121.612V445.125C121.612 445.409 121.653 445.622 121.735 445.764C121.82 445.903 121.928 445.997 122.059 446.045C122.192 446.091 122.333 446.114 122.481 446.114C122.592 446.114 122.683 446.108 122.754 446.097C122.825 446.082 122.881 446.071 122.924 446.062L123.129 446.966C123.06 446.991 122.965 447.017 122.843 447.043C122.721 447.071 122.566 447.085 122.379 447.085C122.094 447.085 121.816 447.024 121.543 446.902C121.273 446.78 121.049 446.594 120.87 446.344C120.694 446.094 120.606 445.778 120.606 445.398V441.307H119.617V440.455H120.606V438.886H121.612V440.455H123.009Z" fill="#333333"/>
<g opacity="0.8">
<path d="M50.5 440.5C50.5001 443.3 46.5 446.333 44.5 447.5C42.5 446.333 38.5 443.3 38.5 440.5C38.5 438 39.8125 436.5 41.5 436.5C43.3438 436.5 44.5 437.5 44.5 437.5C44.5 437.5 45.5 436.5 47.5 436.5C49.1875 436.5 50.5 438 50.5 440.5Z" stroke="#333333" stroke-linejoin="round"/>
</g>
<path d="M69.0795 411H68.0227C67.9375 410.597 67.7741 410.257 67.5327 409.982C67.2912 409.706 67 409.497 66.6591 409.355C66.3182 409.213 65.9545 409.142 65.5682 409.142C65.0398 409.142 64.5611 409.276 64.1321 409.543C63.706 409.81 63.3665 410.203 63.1136 410.723C62.8636 411.243 62.7386 411.881 62.7386 412.636C62.7386 413.392 62.8636 414.03 63.1136 414.55C63.3665 415.07 63.706 415.463 64.1321 415.73C64.5611 415.997 65.0398 416.131 65.5682 416.131C65.9545 416.131 66.3182 416.06 66.6591 415.918C67 415.776 67.2912 415.567 67.5327 415.291C67.7741 415.016 67.9375 414.676 68.0227 414.273H69.0795C68.9716 414.869 68.7514 415.381 68.419 415.807C68.0866 416.23 67.6747 416.555 67.1832 416.783C66.6918 417.007 66.1534 417.119 65.5682 417.119C64.8239 417.119 64.1619 416.938 63.5824 416.574C63.0028 416.21 62.5469 415.693 62.2145 415.023C61.8821 414.352 61.7159 413.557 61.7159 412.636C61.7159 411.716 61.8821 410.92 62.2145 410.25C62.5469 409.58 63.0028 409.062 63.5824 408.699C64.1619 408.335 64.8239 408.153 65.5682 408.153C66.1534 408.153 66.6918 408.267 67.1832 408.494C67.6747 408.719 68.0866 409.044 68.419 409.47C68.7514 409.893 68.9716 410.403 69.0795 411ZM73.11 417.136C72.5191 417.136 72.0006 416.996 71.5546 416.714C71.1114 416.433 70.7648 416.04 70.5148 415.534C70.2677 415.028 70.1441 414.437 70.1441 413.761C70.1441 413.08 70.2677 412.484 70.5148 411.976C70.7648 411.467 71.1114 411.072 71.5546 410.791C72.0006 410.51 72.5191 410.369 73.11 410.369C73.7009 410.369 74.218 410.51 74.6612 410.791C75.1072 411.072 75.4538 411.467 75.7009 411.976C75.9509 412.484 76.0759 413.08 76.0759 413.761C76.0759 414.437 75.9509 415.028 75.7009 415.534C75.4538 416.04 75.1072 416.433 74.6612 416.714C74.218 416.996 73.7009 417.136 73.11 417.136ZM73.11 416.233C73.5589 416.233 73.9282 416.118 74.218 415.888C74.5077 415.658 74.7222 415.355 74.8614 414.98C75.0006 414.605 75.0702 414.199 75.0702 413.761C75.0702 413.324 75.0006 412.916 74.8614 412.538C74.7222 412.161 74.5077 411.855 74.218 411.622C73.9282 411.389 73.5589 411.273 73.11 411.273C72.6612 411.273 72.2918 411.389 72.0021 411.622C71.7123 411.855 71.4978 412.161 71.3586 412.538C71.2194 412.916 71.1498 413.324 71.1498 413.761C71.1498 414.199 71.2194 414.605 71.3586 414.98C71.4978 415.355 71.7123 415.658 72.0021 415.888C72.2918 416.118 72.6612 416.233 73.11 416.233ZM79.8827 417.136C79.3372 417.136 78.8557 416.999 78.4381 416.723C78.0205 416.445 77.6938 416.053 77.458 415.547C77.2222 415.038 77.1043 414.438 77.1043 413.744C77.1043 413.057 77.2222 412.46 77.458 411.955C77.6938 411.449 78.0219 411.058 78.4423 410.783C78.8628 410.507 79.3486 410.369 79.8997 410.369C80.3259 410.369 80.6625 410.44 80.9097 410.582C81.1597 410.722 81.35 410.881 81.4807 411.06C81.6142 411.236 81.7179 411.381 81.7918 411.494H81.877V408.273H82.8827V417H81.9111V415.994H81.7918C81.7179 416.114 81.6128 416.264 81.4764 416.446C81.3401 416.625 81.1455 416.786 80.8926 416.928C80.6398 417.067 80.3031 417.136 79.8827 417.136ZM80.019 416.233C80.6241 416.233 81.0872 416.001 81.4082 415.538C81.7321 415.072 81.894 414.469 81.894 413.727C81.894 412.994 81.7349 412.402 81.4168 411.95C81.0986 411.499 80.6327 411.273 80.019 411.273C79.5929 411.273 79.2378 411.382 78.9537 411.601C78.6724 411.817 78.4608 412.111 78.3188 412.483C78.1795 412.852 78.1099 413.267 78.1099 413.727C78.1099 414.193 78.181 414.616 78.323 414.997C78.4679 415.375 78.681 415.676 78.9622 415.901C79.2463 416.122 79.5986 416.233 80.019 416.233ZM87.4085 417.136C86.7778 417.136 86.2338 416.997 85.7764 416.719C85.3219 416.438 84.971 416.045 84.7239 415.543C84.4795 415.037 84.3574 414.449 84.3574 413.778C84.3574 413.108 84.4795 412.517 84.7239 412.006C84.971 411.491 85.3148 411.091 85.7551 410.804C86.1983 410.514 86.7153 410.369 87.3062 410.369C87.6472 410.369 87.9838 410.426 88.3162 410.54C88.6486 410.653 88.9511 410.838 89.2239 411.094C89.4966 411.347 89.7139 411.682 89.8759 412.099C90.0378 412.517 90.1187 413.031 90.1187 413.642V414.068H85.3673C85.3901 414.767 85.5875 415.303 85.9597 415.675C86.3347 416.047 86.8176 416.233 87.4085 416.233C87.8034 416.233 88.1429 416.148 88.427 415.977C88.7111 415.807 88.917 415.551 89.0449 415.21L90.0165 415.483C89.8631 415.977 89.5562 416.376 89.096 416.68C88.6358 416.984 88.0733 417.136 87.4085 417.136ZM85.3673 413.199H89.096C89.096 412.645 88.9341 412.186 88.6102 411.822C88.2864 411.456 87.8517 411.273 87.3062 411.273C86.9227 411.273 86.5903 411.362 86.3091 411.541C86.0278 411.72 85.8062 411.957 85.6443 412.253C85.4824 412.545 85.3901 412.861 85.3673 413.199Z" fill="#333333"/>
<g opacity="0.8">
<path d="M41.5 407.5L38.5 411.5L41.5 415.5M47.5 407.5L50.5 411.5L47.5 415.5" stroke="#333333" stroke-linecap="round" stroke-linejoin="round"/>
</g>
<path d="M61.5795 469.21V468.273H68.125V469.21H65.3807V477H64.3239V469.21H61.5795ZM71.3295 477.136C70.7386 477.136 70.2202 476.996 69.7741 476.714C69.331 476.433 68.9844 476.04 68.7344 475.534C68.4872 475.028 68.3636 474.437 68.3636 473.761C68.3636 473.08 68.4872 472.484 68.7344 471.976C68.9844 471.467 69.331 471.072 69.7741 470.791C70.2202 470.51 70.7386 470.369 71.3295 470.369C71.9205 470.369 72.4375 470.51 72.8807 470.791C73.3267 471.072 73.6733 471.467 73.9205 471.976C74.1705 472.484 74.2955 473.08 74.2955 473.761C74.2955 474.437 74.1705 475.028 73.9205 475.534C73.6733 476.04 73.3267 476.433 72.8807 476.714C72.4375 476.996 71.9205 477.136 71.3295 477.136ZM71.3295 476.233C71.7784 476.233 72.1477 476.118 72.4375 475.888C72.7273 475.658 72.9418 475.355 73.081 474.98C73.2202 474.605 73.2898 474.199 73.2898 473.761C73.2898 473.324 73.2202 472.916 73.081 472.538C72.9418 472.161 72.7273 471.855 72.4375 471.622C72.1477 471.389 71.7784 471.273 71.3295 471.273C70.8807 471.273 70.5114 471.389 70.2216 471.622C69.9318 471.855 69.7173 472.161 69.5781 472.538C69.4389 472.916 69.3693 473.324 69.3693 473.761C69.3693 474.199 69.4389 474.605 69.5781 474.98C69.7173 475.355 69.9318 475.658 70.2216 475.888C70.5114 476.118 70.8807 476.233 71.3295 476.233ZM75.8306 479.455V470.455H76.8022V471.494H76.9215C76.9954 471.381 77.0977 471.236 77.2283 471.06C77.3619 470.881 77.5522 470.722 77.7994 470.582C78.0494 470.44 78.3874 470.369 78.8136 470.369C79.3647 470.369 79.8505 470.507 80.271 470.783C80.6914 471.058 81.0195 471.449 81.2553 471.955C81.4911 472.46 81.609 473.057 81.609 473.744C81.609 474.438 81.4911 475.038 81.2553 475.547C81.0195 476.053 80.6928 476.445 80.2752 476.723C79.8576 476.999 79.3761 477.136 78.8306 477.136C78.4102 477.136 78.0735 477.067 77.8207 476.928C77.5678 476.786 77.3732 476.625 77.2369 476.446C77.1005 476.264 76.9954 476.114 76.9215 475.994H76.8363V479.455H75.8306ZM76.8192 473.727C76.8192 474.469 76.9798 475.072 77.3008 475.538C77.6246 476.001 78.0891 476.233 78.6942 476.233C79.1147 476.233 79.4656 476.122 79.7468 475.901C80.0309 475.676 80.244 475.375 80.386 474.997C80.5309 474.616 80.6033 474.193 80.6033 473.727C80.6033 473.267 80.5323 472.852 80.3903 472.483C80.2511 472.111 80.0394 471.817 79.7553 471.601C79.4741 471.382 79.1204 471.273 78.6942 471.273C78.0806 471.273 77.6147 471.499 77.2965 471.95C76.9783 472.402 76.8192 472.994 76.8192 473.727ZM86.6545 477V468.273H89.6033C90.288 468.273 90.8477 468.396 91.2823 468.643C91.7198 468.888 92.0437 469.219 92.2539 469.636C92.4641 470.054 92.5692 470.52 92.5692 471.034C92.5692 471.548 92.4641 472.016 92.2539 472.436C92.0465 472.857 91.7255 473.192 91.2908 473.442C90.8562 473.689 90.2994 473.812 89.6204 473.812H87.7113V477H86.6545ZM87.7113 472.875H89.5863C90.288 472.875 90.7866 472.699 91.082 472.347C91.3803 471.994 91.5295 471.557 91.5295 471.034C91.5295 470.509 91.3803 470.074 91.082 469.73C90.7837 469.384 90.2795 469.21 89.5692 469.21H87.7113V472.875ZM96.0614 477.153C95.6467 477.153 95.2702 477.075 94.9322 476.919C94.5941 476.76 94.3256 476.531 94.1268 476.233C93.9279 475.932 93.8285 475.568 93.8285 475.142C93.8285 474.767 93.9023 474.463 94.0501 474.23C94.1978 473.994 94.3952 473.81 94.6424 473.676C94.8896 473.543 95.1623 473.443 95.4606 473.378C95.7617 473.31 96.0643 473.256 96.3683 473.216C96.766 473.165 97.0884 473.126 97.3356 473.101C97.5856 473.072 97.7674 473.026 97.881 472.96C97.9975 472.895 98.0558 472.781 98.0558 472.619V472.585C98.0558 472.165 97.9407 471.838 97.7106 471.605C97.4833 471.372 97.1381 471.256 96.6751 471.256C96.195 471.256 95.8185 471.361 95.5458 471.571C95.2731 471.781 95.0813 472.006 94.9705 472.244L94.016 471.903C94.1864 471.506 94.4137 471.196 94.6978 470.974C94.9847 470.75 95.2972 470.594 95.6353 470.506C95.9762 470.415 96.3114 470.369 96.641 470.369C96.8512 470.369 97.0927 470.395 97.3654 470.446C97.641 470.494 97.9066 470.595 98.1623 470.749C98.4208 470.902 98.6353 471.134 98.8058 471.443C98.9762 471.753 99.0614 472.168 99.0614 472.688V477H98.0558V476.114H98.0046C97.9364 476.256 97.8228 476.408 97.6637 476.57C97.5046 476.732 97.293 476.869 97.0288 476.983C96.7646 477.097 96.4421 477.153 96.0614 477.153ZM96.2148 476.25C96.6126 476.25 96.9478 476.172 97.2205 476.016C97.4961 475.859 97.7035 475.658 97.8427 475.411C97.9847 475.163 98.0558 474.903 98.0558 474.631V473.71C98.0131 473.761 97.9194 473.808 97.7745 473.851C97.6325 473.891 97.4677 473.926 97.2802 473.957C97.0955 473.986 96.9151 474.011 96.739 474.034C96.5657 474.054 96.4251 474.071 96.3171 474.085C96.0558 474.119 95.8114 474.175 95.5842 474.251C95.3597 474.325 95.1779 474.437 95.0387 474.588C94.9023 474.736 94.8342 474.937 94.8342 475.193C94.8342 475.543 94.9634 475.807 95.2219 475.986C95.4833 476.162 95.8143 476.25 96.2148 476.25ZM101.903 473.062V477H100.897V470.455H101.869V471.477H101.954C102.107 471.145 102.34 470.878 102.653 470.676C102.965 470.472 103.369 470.369 103.863 470.369C104.525 470.369 105.059 470.572 105.465 470.979C105.874 471.385 106.079 472.006 106.079 472.841V477H105.073V472.909C105.073 472.395 104.94 471.994 104.673 471.707C104.406 471.418 104.039 471.273 103.573 471.273C103.093 471.273 102.694 471.429 102.376 471.741C102.06 472.051 101.903 472.491 101.903 473.062ZM110.661 477.136C110.03 477.136 109.486 476.997 109.029 476.719C108.574 476.438 108.223 476.045 107.976 475.543C107.732 475.037 107.61 474.449 107.61 473.778C107.61 473.108 107.732 472.517 107.976 472.006C108.223 471.491 108.567 471.091 109.007 470.804C109.451 470.514 109.968 470.369 110.559 470.369C110.9 470.369 111.236 470.426 111.569 470.54C111.901 470.653 112.203 470.838 112.476 471.094C112.749 471.347 112.966 471.682 113.128 472.099C113.29 472.517 113.371 473.031 113.371 473.642V474.068H108.62C108.642 474.767 108.84 475.303 109.212 475.675C109.587 476.047 110.07 476.233 110.661 476.233C111.056 476.233 111.395 476.148 111.679 475.977C111.963 475.807 112.169 475.551 112.297 475.21L113.269 475.483C113.115 475.977 112.809 476.376 112.348 476.68C111.888 476.984 111.326 477.136 110.661 477.136ZM108.62 473.199H112.348C112.348 472.645 112.186 472.186 111.863 471.822C111.539 471.456 111.104 471.273 110.559 471.273C110.175 471.273 109.843 471.362 109.561 471.541C109.28 471.72 109.059 471.957 108.897 472.253C108.735 472.545 108.642 472.861 108.62 473.199ZM115.907 468.273V477H114.901V468.273H115.907Z" fill="#333333"/>
<g opacity="0.8">
<rect x="40" y="467" width="9" height="2" fill="#5C5C5C"/>
<path d="M39.5 465.5H49.5C50.0523 465.5 50.5 465.948 50.5 466.5V476.5C50.5 477.052 50.0523 477.5 49.5 477.5H39.5C38.9477 477.5 38.5 477.052 38.5 476.5V466.5C38.5 465.948 38.9477 465.5 39.5 465.5Z" stroke="#333333"/>
</g>
<path d="M66.8295 290.455C66.7784 290.023 66.571 289.688 66.2074 289.449C65.8438 289.21 65.3977 289.091 64.8693 289.091C64.2898 289.091 63.8239 289.229 63.4716 289.504C63.1193 289.777 62.9432 290.122 62.9432 290.54C62.9432 290.852 63.0384 291.105 63.2287 291.298C63.4219 291.489 63.6491 291.638 63.9105 291.746C64.1747 291.851 64.4148 291.932 64.6307 291.989L65.517 292.227C65.7443 292.287 65.9972 292.369 66.2756 292.474C66.5568 292.58 66.8253 292.723 67.081 292.905C67.3395 293.084 67.5526 293.314 67.7202 293.595C67.8878 293.876 67.9716 294.222 67.9716 294.631C67.9716 295.102 67.848 295.528 67.6009 295.909C67.3565 296.29 66.9986 296.592 66.527 296.817C66.0582 297.041 65.4886 297.153 64.8182 297.153C63.8807 297.153 63.1364 296.932 62.5852 296.489C62.0341 296.045 61.733 295.466 61.6818 294.75H62.7727C62.8011 295.08 62.9119 295.352 63.1051 295.568C63.3011 295.781 63.5483 295.94 63.8466 296.045C64.1477 296.148 64.4716 296.199 64.8182 296.199C65.2216 296.199 65.5838 296.134 65.9048 296.003C66.2259 295.869 66.4801 295.685 66.6676 295.449C66.8551 295.21 66.9489 294.932 66.9489 294.614C66.9489 294.324 66.8679 294.088 66.706 293.906C66.544 293.724 66.331 293.577 66.0668 293.463C65.8026 293.349 65.517 293.25 65.2102 293.165L64.1364 292.858C63.4545 292.662 62.9148 292.382 62.517 292.018C62.1193 291.655 61.9205 291.179 61.9205 290.591C61.9205 290.102 62.0526 289.676 62.3168 289.312C62.5838 288.946 62.9418 288.662 63.3906 288.46C63.8423 288.256 64.3466 288.153 64.9034 288.153C65.4659 288.153 65.9659 288.254 66.4034 288.456C66.8409 288.655 67.1875 288.928 67.4432 289.274C67.7017 289.621 67.8381 290.014 67.8523 290.455H66.8295ZM70.5785 288.273V297H69.5728V288.273H70.5785ZM72.4205 297V290.455H73.4261V297H72.4205ZM72.9318 289.364C72.7358 289.364 72.5668 289.297 72.4247 289.163C72.2855 289.03 72.2159 288.869 72.2159 288.682C72.2159 288.494 72.2855 288.334 72.4247 288.2C72.5668 288.067 72.7358 288 72.9318 288C73.1278 288 73.2955 288.067 73.4347 288.2C73.5767 288.334 73.6477 288.494 73.6477 288.682C73.6477 288.869 73.5767 289.03 73.4347 289.163C73.2955 289.297 73.1278 289.364 72.9318 289.364ZM77.7397 297.136C77.1942 297.136 76.7127 296.999 76.2951 296.723C75.8775 296.445 75.5508 296.053 75.315 295.547C75.0792 295.038 74.9613 294.438 74.9613 293.744C74.9613 293.057 75.0792 292.46 75.315 291.955C75.5508 291.449 75.8789 291.058 76.2994 290.783C76.7198 290.507 77.2056 290.369 77.7567 290.369C78.1829 290.369 78.5195 290.44 78.7667 290.582C79.0167 290.722 79.207 290.881 79.3377 291.06C79.4712 291.236 79.5749 291.381 79.6488 291.494H79.734V288.273H80.7397V297H79.7681V295.994H79.6488C79.5749 296.114 79.4698 296.264 79.3335 296.446C79.1971 296.625 79.0025 296.786 78.7496 296.928C78.4968 297.067 78.1602 297.136 77.7397 297.136ZM77.8761 296.233C78.4812 296.233 78.9442 296.001 79.2653 295.538C79.5891 295.072 79.7511 294.469 79.7511 293.727C79.7511 292.994 79.592 292.402 79.2738 291.95C78.9556 291.499 78.4897 291.273 77.8761 291.273C77.4499 291.273 77.0948 291.382 76.8107 291.601C76.5295 291.817 76.3178 292.111 76.1758 292.483C76.0366 292.852 75.967 293.267 75.967 293.727C75.967 294.193 76.038 294.616 76.18 294.997C76.3249 295.375 76.538 295.676 76.8192 295.901C77.1033 296.122 77.4556 296.233 77.8761 296.233ZM85.4656 297.136C84.8349 297.136 84.2908 296.997 83.8335 296.719C83.3789 296.438 83.0281 296.045 82.7809 295.543C82.5366 295.037 82.4144 294.449 82.4144 293.778C82.4144 293.108 82.5366 292.517 82.7809 292.006C83.0281 291.491 83.3718 291.091 83.8121 290.804C84.2553 290.514 84.7724 290.369 85.3633 290.369C85.7042 290.369 86.0408 290.426 86.3732 290.54C86.7056 290.653 87.0082 290.838 87.2809 291.094C87.5536 291.347 87.771 291.682 87.9329 292.099C88.0948 292.517 88.1758 293.031 88.1758 293.642V294.068H83.4244C83.4471 294.767 83.6445 295.303 84.0167 295.675C84.3917 296.047 84.8746 296.233 85.4656 296.233C85.8604 296.233 86.1999 296.148 86.484 295.977C86.7681 295.807 86.9741 295.551 87.1019 295.21L88.0735 295.483C87.9201 295.977 87.6133 296.376 87.1531 296.68C86.6928 296.984 86.1303 297.136 85.4656 297.136ZM83.4244 293.199H87.1531C87.1531 292.645 86.9911 292.186 86.6673 291.822C86.3434 291.456 85.9087 291.273 85.3633 291.273C84.9798 291.273 84.6474 291.362 84.3661 291.541C84.0849 291.72 83.8633 291.957 83.7013 292.253C83.5394 292.545 83.4471 292.861 83.4244 293.199ZM89.7056 297V290.455H90.6772V291.443H90.7454C90.8647 291.119 91.0806 290.857 91.3931 290.655C91.7056 290.453 92.0579 290.352 92.4499 290.352C92.5238 290.352 92.6161 290.354 92.7269 290.357C92.8377 290.359 92.9215 290.364 92.9783 290.369V291.392C92.9442 291.384 92.8661 291.371 92.744 291.354C92.6246 291.334 92.4982 291.324 92.3647 291.324C91.8874 291.324 91.4925 291.469 91.18 291.759C90.8675 292.048 90.7113 292.415 90.7113 292.858V297H89.7056Z" fill="#333333"/>
<g opacity="0.8">
<path d="M38.5 286.833C38.5 286.09 39.0917 285.5 39.8056 285.5H49.1944C49.9083 285.5 50.5 286.09 50.5 286.833V294.167C50.5 294.91 49.9083 295.5 49.1944 295.5H39.8056C39.0917 295.5 38.5 294.91 38.5 294.167V286.833Z" stroke="#333333"/>
<path d="M45.2322 290.318L45.5504 290.636L45.5504 290.636L45.2322 290.318ZM43.1818 291.732L42.8636 292.05L43.5 292.686L43.8182 292.368L43.1818 291.732ZM48.7678 290.318L48.4496 290.636L48.7678 290.318ZM49.6818 291.868L50 292.186L50.6364 291.55L50.3182 291.232L49.6818 291.868ZM40.2461 292.012L40.5342 292.357L40.5342 292.357L40.2461 292.012ZM38.7119 292.704L38.3662 292.992L38.9424 293.684L39.2881 293.396L38.7119 292.704ZM43.6818 292.868L44 293.186L44.6364 292.55L44.3182 292.232L43.6818 292.868ZM43.6144 292.164L43.2962 292.483L43.2962 292.483L43.6144 292.164ZM44.914 290L43.1818 291.732L43.8182 292.368L45.5504 290.636L44.914 290ZM48.4496 290.636L49.6818 291.868L50.3182 291.232L49.086 290L48.4496 290.636ZM39.958 291.666L38.7119 292.704L39.2881 293.396L40.5342 292.357L39.958 291.666ZM44.3182 292.232L43.9326 291.846L43.2962 292.483L43.6818 292.868L44.3182 292.232ZM40.5342 292.357C41.3487 291.679 42.5464 291.733 43.2962 292.483L43.9326 291.846C42.8537 290.767 41.1301 290.689 39.958 291.666L40.5342 292.357ZM45.5504 290.636C46.351 289.835 47.649 289.835 48.4496 290.636L49.086 290C47.9339 288.848 46.0661 288.848 44.914 290L45.5504 290.636Z" fill="#333333"/>
<path d="M45 297.5C45 297.776 44.7761 298 44.5 298C44.2239 298 44 297.776 44 297.5C44 297.224 44.2239 297 44.5 297C44.7761 297 45 297.224 45 297.5Z" fill="#333333"/>
<path d="M47 297.5C47 297.776 46.7761 298 46.5 298C46.2239 298 46 297.776 46 297.5C46 297.224 46.2239 297 46.5 297C46.7761 297 47 297.224 47 297.5Z" fill="#333333"/>
<path d="M43 297.5C43 297.776 42.7761 298 42.5 298C42.2239 298 42 297.776 42 297.5C42 297.224 42.2239 297 42.5 297C42.7761 297 43 297.224 43 297.5Z" fill="#333333"/>
</g>
<path d="M62.0568 327V318.273H65.108C65.7159 318.273 66.2173 318.378 66.6122 318.588C67.0071 318.795 67.3011 319.075 67.4943 319.428C67.6875 319.777 67.7841 320.165 67.7841 320.591C67.7841 320.966 67.7173 321.276 67.5838 321.52C67.4531 321.764 67.2798 321.957 67.0639 322.099C66.8509 322.241 66.6193 322.347 66.3693 322.415V322.5C66.6364 322.517 66.9048 322.611 67.1747 322.781C67.4446 322.952 67.6705 323.196 67.8523 323.514C68.0341 323.832 68.125 324.222 68.125 324.682C68.125 325.119 68.0256 325.513 67.8267 325.862C67.6278 326.212 67.3139 326.489 66.8849 326.693C66.456 326.898 65.8977 327 65.2102 327H62.0568ZM63.1136 326.062H65.2102C65.9006 326.062 66.3906 325.929 66.6804 325.662C66.973 325.392 67.1193 325.065 67.1193 324.682C67.1193 324.386 67.044 324.114 66.8935 323.864C66.7429 323.611 66.5284 323.409 66.25 323.259C65.9716 323.105 65.642 323.028 65.2614 323.028H63.1136V326.062ZM63.1136 322.108H65.0739C65.5511 322.108 65.9545 321.97 66.2841 321.695C66.6136 321.419 66.7784 321.051 66.7784 320.591C66.7784 320.207 66.6449 319.882 66.3778 319.615C66.1108 319.345 65.6875 319.21 65.108 319.21H63.1136V322.108ZM73.8501 324.324V320.455H74.8558V327H73.8501V325.892H73.782C73.6286 326.224 73.3899 326.507 73.0661 326.74C72.7422 326.97 72.3331 327.085 71.8388 327.085C71.2251 327.085 70.7195 326.882 70.3217 326.476C69.924 326.07 69.7251 325.449 69.7251 324.614V320.455H70.7308V324.545C70.7308 325.023 70.8643 325.403 71.1314 325.688C71.4013 325.972 71.745 326.114 72.1626 326.114C72.4126 326.114 72.6669 326.05 72.9254 325.922C73.1868 325.794 73.4055 325.598 73.5817 325.334C73.7607 325.07 73.8501 324.733 73.8501 324.324ZM79.5444 320.455V321.307H78.1467V325.125C78.1467 325.409 78.1879 325.622 78.2702 325.764C78.3555 325.903 78.4634 325.997 78.5941 326.045C78.7276 326.091 78.8683 326.114 79.016 326.114C79.1268 326.114 79.2177 326.108 79.2887 326.097C79.3597 326.082 79.4165 326.071 79.4592 326.062L79.6637 326.966C79.5955 326.991 79.5004 327.017 79.3782 327.043C79.256 327.071 79.1012 327.085 78.9137 327.085C78.6296 327.085 78.3512 327.024 78.0785 326.902C77.8086 326.78 77.5842 326.594 77.4052 326.344C77.229 326.094 77.141 325.778 77.141 325.398V321.307H76.1523V320.455H77.141V318.886H78.1467V320.455H79.5444ZM83.9038 320.455V321.307H82.506V325.125C82.506 325.409 82.5472 325.622 82.6296 325.764C82.7148 325.903 82.8228 325.997 82.9535 326.045C83.087 326.091 83.2276 326.114 83.3754 326.114C83.4862 326.114 83.5771 326.108 83.6481 326.097C83.7191 326.082 83.7759 326.071 83.8185 326.062L84.0231 326.966C83.9549 326.991 83.8597 327.017 83.7376 327.043C83.6154 327.071 83.4606 327.085 83.2731 327.085C82.989 327.085 82.7106 327.024 82.4379 326.902C82.168 326.78 81.9435 326.594 81.7646 326.344C81.5884 326.094 81.5004 325.778 81.5004 325.398V321.307H80.5117V320.455H81.5004V318.886H82.506V320.455H83.9038ZM88.0053 327.136C87.4144 327.136 86.896 326.996 86.4499 326.714C86.0067 326.433 85.6602 326.04 85.4102 325.534C85.163 325.028 85.0394 324.437 85.0394 323.761C85.0394 323.08 85.163 322.484 85.4102 321.976C85.6602 321.467 86.0067 321.072 86.4499 320.791C86.896 320.51 87.4144 320.369 88.0053 320.369C88.5962 320.369 89.1133 320.51 89.5565 320.791C90.0025 321.072 90.3491 321.467 90.5962 321.976C90.8462 322.484 90.9712 323.08 90.9712 323.761C90.9712 324.437 90.8462 325.028 90.5962 325.534C90.3491 326.04 90.0025 326.433 89.5565 326.714C89.1133 326.996 88.5962 327.136 88.0053 327.136ZM88.0053 326.233C88.4542 326.233 88.8235 326.118 89.1133 325.888C89.4031 325.658 89.6175 325.355 89.7567 324.98C89.896 324.605 89.9656 324.199 89.9656 323.761C89.9656 323.324 89.896 322.916 89.7567 322.538C89.6175 322.161 89.4031 321.855 89.1133 321.622C88.8235 321.389 88.4542 321.273 88.0053 321.273C87.5565 321.273 87.1871 321.389 86.8974 321.622C86.6076 321.855 86.3931 322.161 86.2539 322.538C86.1147 322.916 86.0451 323.324 86.0451 323.761C86.0451 324.199 86.1147 324.605 86.2539 324.98C86.3931 325.355 86.6076 325.658 86.8974 325.888C87.1871 326.118 87.5565 326.233 88.0053 326.233ZM93.5121 323.062V327H92.5064V320.455H93.478V321.477H93.5632C93.7166 321.145 93.9496 320.878 94.2621 320.676C94.5746 320.472 94.978 320.369 95.4723 320.369C96.1342 320.369 96.6683 320.572 97.0746 320.979C97.4837 321.385 97.6882 322.006 97.6882 322.841V327H96.6825V322.909C96.6825 322.395 96.549 321.994 96.282 321.707C96.0149 321.418 95.6484 321.273 95.1825 321.273C94.7024 321.273 94.3033 321.429 93.9851 321.741C93.6697 322.051 93.5121 322.491 93.5121 323.062Z" fill="#333333"/>
<g opacity="0.8">
<rect x="38.5" y="317.5" width="12" height="8" rx="4" stroke="#333333"/>
<rect opacity="0.8" x="42" y="320" width="5" height="3" fill="#9A9A9A"/>
</g>
<path d="M62.0568 348.273H63.3182L66.2841 355.517H66.3864L69.3523 348.273H70.6136V357H69.625V350.369H69.5398L66.8125 357H65.858L63.1307 350.369H63.0455V357H62.0568V348.273ZM74.7919 357.153C74.3771 357.153 74.0007 357.075 73.6626 356.919C73.3246 356.76 73.0561 356.531 72.8572 356.233C72.6584 355.932 72.5589 355.568 72.5589 355.142C72.5589 354.767 72.6328 354.463 72.7805 354.23C72.9283 353.994 73.1257 353.81 73.3729 353.676C73.62 353.543 73.8928 353.443 74.1911 353.378C74.4922 353.31 74.7947 353.256 75.0987 353.216C75.4964 353.165 75.8189 353.126 76.0661 353.101C76.3161 353.072 76.4979 353.026 76.6115 352.96C76.728 352.895 76.7862 352.781 76.7862 352.619V352.585C76.7862 352.165 76.6712 351.838 76.4411 351.605C76.2138 351.372 75.8686 351.256 75.4055 351.256C74.9254 351.256 74.549 351.361 74.2763 351.571C74.0036 351.781 73.8118 352.006 73.701 352.244L72.7464 351.903C72.9169 351.506 73.1442 351.196 73.4283 350.974C73.7152 350.75 74.0277 350.594 74.3658 350.506C74.7067 350.415 75.0419 350.369 75.3714 350.369C75.5817 350.369 75.8232 350.395 76.0959 350.446C76.3714 350.494 76.6371 350.595 76.8928 350.749C77.1513 350.902 77.3658 351.134 77.5362 351.443C77.7067 351.753 77.7919 352.168 77.7919 352.688V357H76.7862V356.114H76.7351C76.6669 356.256 76.5533 356.408 76.3942 356.57C76.2351 356.732 76.0234 356.869 75.7592 356.983C75.495 357.097 75.1726 357.153 74.7919 357.153ZM74.9453 356.25C75.343 356.25 75.6783 356.172 75.951 356.016C76.2266 355.859 76.4339 355.658 76.5732 355.411C76.7152 355.163 76.7862 354.903 76.7862 354.631V353.71C76.7436 353.761 76.6499 353.808 76.505 353.851C76.3629 353.891 76.1982 353.926 76.0107 353.957C75.826 353.986 75.6456 354.011 75.4695 354.034C75.2962 354.054 75.1555 354.071 75.0476 354.085C74.7862 354.119 74.5419 354.175 74.3146 354.251C74.0902 354.325 73.9084 354.437 73.7692 354.588C73.6328 354.736 73.5646 354.937 73.5646 355.193C73.5646 355.543 73.6939 355.807 73.9524 355.986C74.2138 356.162 74.5447 356.25 74.9453 356.25ZM79.6275 359.455V350.455H80.5991V351.494H80.7184C80.7923 351.381 80.8945 351.236 81.0252 351.06C81.1587 350.881 81.3491 350.722 81.5962 350.582C81.8462 350.44 82.1843 350.369 82.6104 350.369C83.1616 350.369 83.6474 350.507 84.0678 350.783C84.4883 351.058 84.8164 351.449 85.0522 351.955C85.288 352.46 85.4059 353.057 85.4059 353.744C85.4059 354.438 85.288 355.038 85.0522 355.547C84.8164 356.053 84.4897 356.445 84.0721 356.723C83.6545 356.999 83.1729 357.136 82.6275 357.136C82.207 357.136 81.8704 357.067 81.6175 356.928C81.3647 356.786 81.1701 356.625 81.0337 356.446C80.8974 356.264 80.7923 356.114 80.7184 355.994H80.6332V359.455H79.6275ZM80.6161 353.727C80.6161 354.469 80.7766 355.072 81.0977 355.538C81.4215 356.001 81.886 356.233 82.4911 356.233C82.9116 356.233 83.2624 356.122 83.5437 355.901C83.8278 355.676 84.0408 355.375 84.1829 354.997C84.3278 354.616 84.4002 354.193 84.4002 353.727C84.4002 353.267 84.3292 352.852 84.1871 352.483C84.0479 352.111 83.8363 351.817 83.5522 351.601C83.271 351.382 82.9173 351.273 82.4911 351.273C81.8775 351.273 81.4116 351.499 81.0934 351.95C80.7752 352.402 80.6161 352.994 80.6161 353.727Z" fill="#333333"/>
<g opacity="0.8">
<path d="M42.305 345.598L38.7764 347.362C38.607 347.446 38.5 347.62 38.5 347.809V357.5L42.3244 356.066C42.4376 356.023 42.5624 356.023 42.6756 356.066L46.2958 357.423C46.426 357.472 46.5707 357.465 46.695 357.402L50.2236 355.638C50.393 355.554 50.5 355.38 50.5 355.191V345.5L46.6756 346.934C46.5624 346.977 46.4376 346.977 46.3244 346.934L42.7042 345.577C42.574 345.528 42.4293 345.535 42.305 345.598Z" stroke="#333333" stroke-linejoin="round"/>
<path d="M42.5 345.5V356M46.5 347V357.5" stroke="#333333"/>
</g>
<circle cx="179.5" cy="201.5" r="2.5" fill="#C4C4C4"/>
<circle cx="179.5" cy="321.5" r="2.5" fill="#C4C4C4"/>
<circle cx="179.5" cy="381.5" r="2.5" fill="#C4C4C4"/>
<circle cx="179.5" cy="441.5" r="2.5" fill="#C4C4C4"/>
<circle cx="179.5" cy="261.5" r="2.5" fill="#C4C4C4"/>
<circle cx="179.5" cy="231.5" r="2.5" fill="#C4C4C4"/>
<circle cx="179.5" cy="351.5" r="2.5" fill="#C4C4C4"/>
<circle cx="179.5" cy="411.5" r="2.5" fill="#C4C4C4"/>
<circle cx="179.5" cy="471.5" r="2.5" fill="#C4C4C4"/>
<circle cx="179.5" cy="291.5" r="2.5" fill="#C4C4C4"/>
<path d="M175 172C175 171.448 175.448 171 176 171H183C183.552 171 184 171.448 184 172V176C184 176.552 183.552 177 183 177H176C175.448 177 175 176.552 175 176V172Z" fill="#444444"/>
<path d="M176.5 173V169.5C176.5 167.843 177.843 166.5 179.5 166.5V166.5C181.157 166.5 182.5 167.843 182.5 169.5V173" stroke="#444444"/>
<path d="M45.0227 171C44.8381 170.426 44.5341 169.973 44.1108 169.641C43.6903 169.308 43.1648 169.142 42.5341 169.142C42.017 169.142 41.5469 169.276 41.1236 169.543C40.7003 169.81 40.3636 170.203 40.1136 170.723C39.8636 171.243 39.7386 171.881 39.7386 172.636C39.7386 173.392 39.8651 174.03 40.1179 174.55C40.3707 175.07 40.7131 175.463 41.1449 175.73C41.5767 175.997 42.0625 176.131 42.6023 176.131C43.0938 176.131 43.5284 176.027 43.9062 175.82C44.2869 175.609 44.5852 175.314 44.8011 174.933C45.017 174.55 45.1307 174.097 45.142 173.574H42.8409V172.636H46.1648V173.574C46.1648 174.293 46.0114 174.918 45.7045 175.449C45.4006 175.98 44.9801 176.392 44.4432 176.685C43.9091 176.974 43.2955 177.119 42.6023 177.119C41.8295 177.119 41.1506 176.938 40.5653 176.574C39.983 176.21 39.5284 175.693 39.2017 175.023C38.8778 174.352 38.7159 173.557 38.7159 172.636C38.7159 171.716 38.8778 170.92 39.2017 170.25C39.5284 169.58 39.9787 169.062 40.5526 168.699C41.1293 168.335 41.7898 168.153 42.5341 168.153C43.1477 168.153 43.7045 168.274 44.2045 168.516C44.7045 168.754 45.1207 169.088 45.4531 169.517C45.7855 169.943 46.0057 170.438 46.1136 171H45.0227ZM47.8384 177V170.455H48.81V171.443H48.8782C48.9975 171.119 49.2134 170.857 49.5259 170.655C49.8384 170.453 50.1907 170.352 50.5827 170.352C50.6566 170.352 50.7489 170.354 50.8597 170.357C50.9705 170.359 51.0543 170.364 51.1112 170.369V171.392C51.0771 171.384 50.9989 171.371 50.8768 171.354C50.7575 171.334 50.631 171.324 50.4975 171.324C50.0202 171.324 49.6254 171.469 49.3129 171.759C49.0004 172.048 48.8441 172.415 48.8441 172.858V177H47.8384ZM54.7631 177.136C54.1722 177.136 53.6538 176.996 53.2077 176.714C52.7646 176.433 52.418 176.04 52.168 175.534C51.9208 175.028 51.7972 174.437 51.7972 173.761C51.7972 173.08 51.9208 172.484 52.168 171.976C52.418 171.467 52.7646 171.072 53.2077 170.791C53.6538 170.51 54.1722 170.369 54.7631 170.369C55.354 170.369 55.8711 170.51 56.3143 170.791C56.7603 171.072 57.1069 171.467 57.354 171.976C57.604 172.484 57.729 173.08 57.729 173.761C57.729 174.437 57.604 175.028 57.354 175.534C57.1069 176.04 56.7603 176.433 56.3143 176.714C55.8711 176.996 55.354 177.136 54.7631 177.136ZM54.7631 176.233C55.212 176.233 55.5813 176.118 55.8711 175.888C56.1609 175.658 56.3754 175.355 56.5146 174.98C56.6538 174.605 56.7234 174.199 56.7234 173.761C56.7234 173.324 56.6538 172.916 56.5146 172.538C56.3754 172.161 56.1609 171.855 55.8711 171.622C55.5813 171.389 55.212 171.273 54.7631 171.273C54.3143 171.273 53.945 171.389 53.6552 171.622C53.3654 171.855 53.1509 172.161 53.0117 172.538C52.8725 172.916 52.8029 173.324 52.8029 173.761C52.8029 174.199 52.8725 174.605 53.0117 174.98C53.1509 175.355 53.3654 175.658 53.6552 175.888C53.945 176.118 54.3143 176.233 54.7631 176.233ZM63.3892 174.324V170.455H64.3949V177H63.3892V175.892H63.321C63.1676 176.224 62.929 176.507 62.6051 176.74C62.2813 176.97 61.8722 177.085 61.3778 177.085C60.7642 177.085 60.2585 176.882 59.8608 176.476C59.4631 176.07 59.2642 175.449 59.2642 174.614V170.455H60.2699V174.545C60.2699 175.023 60.4034 175.403 60.6705 175.688C60.9403 175.972 61.2841 176.114 61.7017 176.114C61.9517 176.114 62.206 176.05 62.4645 175.922C62.7259 175.794 62.9446 175.598 63.1207 175.334C63.2997 175.07 63.3892 174.733 63.3892 174.324ZM66.2369 179.455V170.455H67.2085V171.494H67.3278C67.4016 171.381 67.5039 171.236 67.6346 171.06C67.7681 170.881 67.9585 170.722 68.2056 170.582C68.4556 170.44 68.7937 170.369 69.2198 170.369C69.771 170.369 70.2567 170.507 70.6772 170.783C71.0977 171.058 71.4258 171.449 71.6616 171.955C71.8974 172.46 72.0153 173.057 72.0153 173.744C72.0153 174.438 71.8974 175.038 71.6616 175.547C71.4258 176.053 71.0991 176.445 70.6815 176.723C70.2638 176.999 69.7823 177.136 69.2369 177.136C68.8164 177.136 68.4798 177.067 68.2269 176.928C67.9741 176.786 67.7795 176.625 67.6431 176.446C67.5067 176.264 67.4016 176.114 67.3278 175.994H67.2425V179.455H66.2369ZM67.2255 173.727C67.2255 174.469 67.386 175.072 67.707 175.538C68.0309 176.001 68.4954 176.233 69.1005 176.233C69.521 176.233 69.8718 176.122 70.1531 175.901C70.4371 175.676 70.6502 175.375 70.7923 174.997C70.9371 174.616 71.0096 174.193 71.0096 173.727C71.0096 173.267 70.9386 172.852 70.7965 172.483C70.6573 172.111 70.4457 171.817 70.1616 171.601C69.8803 171.382 69.5266 171.273 69.1005 171.273C68.4869 171.273 68.021 171.499 67.7028 171.95C67.3846 172.402 67.2255 172.994 67.2255 173.727Z" fill="#333333"/>
<path d="M25 170H18L21.5 174L25 170Z" fill="#333333"/>
<path opacity="0.4" d="M19 165.5H16.5C15.9477 165.5 15.5 165.948 15.5 166.5V169M27.5 169V166.5C27.5 165.948 27.0523 165.5 26.5 165.5H24M27.5 174V176.5C27.5 177.052 27.0523 177.5 26.5 177.5H24M19 177.5H16.5C15.9477 177.5 15.5 177.052 15.5 176.5V174" stroke="#333333" stroke-linejoin="round"/>
<path d="M6.5 168.5L6.5 175.5L10.5 172L6.5 168.5Z" fill="#333333"/>
<path opacity="0.5" d="M39.0568 108.273H40.3182L43.2841 115.517H43.3864L46.3523 108.273H47.6136V117H46.625V110.369H46.5398L43.8125 117H42.858L40.1307 110.369H40.0455V117H39.0568V108.273ZM51.7919 117.153C51.3771 117.153 51.0007 117.075 50.6626 116.919C50.3246 116.76 50.0561 116.531 49.8572 116.233C49.6584 115.932 49.5589 115.568 49.5589 115.142C49.5589 114.767 49.6328 114.463 49.7805 114.23C49.9283 113.994 50.1257 113.81 50.3729 113.676C50.62 113.543 50.8928 113.443 51.1911 113.378C51.4922 113.31 51.7947 113.256 52.0987 113.216C52.4964 113.165 52.8189 113.126 53.0661 113.101C53.3161 113.072 53.4979 113.026 53.6115 112.96C53.728 112.895 53.7862 112.781 53.7862 112.619V112.585C53.7862 112.165 53.6712 111.838 53.4411 111.605C53.2138 111.372 52.8686 111.256 52.4055 111.256C51.9254 111.256 51.549 111.361 51.2763 111.571C51.0036 111.781 50.8118 112.006 50.701 112.244L49.7464 111.903C49.9169 111.506 50.1442 111.196 50.4283 110.974C50.7152 110.75 51.0277 110.594 51.3658 110.506C51.7067 110.415 52.0419 110.369 52.3714 110.369C52.5817 110.369 52.8232 110.395 53.0959 110.446C53.3714 110.494 53.6371 110.595 53.8928 110.749C54.1513 110.902 54.3658 111.134 54.5362 111.443C54.7067 111.753 54.7919 112.168 54.7919 112.688V117H53.7862V116.114H53.7351C53.6669 116.256 53.5533 116.408 53.3942 116.57C53.2351 116.732 53.0234 116.869 52.7592 116.983C52.495 117.097 52.1726 117.153 51.7919 117.153ZM51.9453 116.25C52.343 116.25 52.6783 116.172 52.951 116.016C53.2266 115.859 53.4339 115.658 53.5732 115.411C53.7152 115.163 53.7862 114.903 53.7862 114.631V113.71C53.7436 113.761 53.6499 113.808 53.505 113.851C53.3629 113.891 53.1982 113.926 53.0107 113.957C52.826 113.986 52.6456 114.011 52.4695 114.034C52.2962 114.054 52.1555 114.071 52.0476 114.085C51.7862 114.119 51.5419 114.175 51.3146 114.251C51.0902 114.325 50.9084 114.437 50.7692 114.588C50.6328 114.736 50.5646 114.937 50.5646 115.193C50.5646 115.543 50.6939 115.807 50.9524 115.986C51.2138 116.162 51.5447 116.25 51.9453 116.25ZM56.6275 119.455V110.455H57.5991V111.494H57.7184C57.7923 111.381 57.8945 111.236 58.0252 111.06C58.1587 110.881 58.3491 110.722 58.5962 110.582C58.8462 110.44 59.1843 110.369 59.6104 110.369C60.1616 110.369 60.6474 110.507 61.0678 110.783C61.4883 111.058 61.8164 111.449 62.0522 111.955C62.288 112.46 62.4059 113.057 62.4059 113.744C62.4059 114.438 62.288 115.038 62.0522 115.547C61.8164 116.053 61.4897 116.445 61.0721 116.723C60.6545 116.999 60.1729 117.136 59.6275 117.136C59.207 117.136 58.8704 117.067 58.6175 116.928C58.3647 116.786 58.1701 116.625 58.0337 116.446C57.8974 116.264 57.7923 116.114 57.7184 115.994H57.6332V119.455H56.6275ZM57.6161 113.727C57.6161 114.469 57.7766 115.072 58.0977 115.538C58.4215 116.001 58.886 116.233 59.4911 116.233C59.9116 116.233 60.2624 116.122 60.5437 115.901C60.8278 115.676 61.0408 115.375 61.1829 114.997C61.3278 114.616 61.4002 114.193 61.4002 113.727C61.4002 113.267 61.3292 112.852 61.1871 112.483C61.0479 112.111 60.8363 111.817 60.5522 111.601C60.271 111.382 59.9173 111.273 59.4911 111.273C58.8775 111.273 58.4116 111.499 58.0934 111.95C57.7752 112.402 57.6161 112.994 57.6161 113.727Z" fill="#444444"/>
<g opacity="0.5">
<path d="M19.305 105.598L15.7764 107.362C15.607 107.446 15.5 107.62 15.5 107.809V117.5L19.3244 116.066C19.4376 116.023 19.5624 116.023 19.6756 116.066L23.2958 117.423C23.426 117.472 23.5707 117.465 23.695 117.402L27.2236 115.638C27.393 115.554 27.5 115.38 27.5 115.191V105.5L23.6756 106.934C23.5624 106.977 23.4376 106.977 23.3244 106.934L19.7042 105.577C19.574 105.528 19.4293 105.535 19.305 105.598Z" stroke="#333333" stroke-linejoin="round"/>
<path d="M19.5 105.5V116M23.5 107V117.5" stroke="#333333"/>
<path d="M19.5 105.5V116M23.5 107V117.5" stroke="#333333"/>
</g>
<g clip-path="url(#clip2)">
<path d="M203.5 107.5C200 107.5 197.5 111.5 197.5 111.5C197.5 111.5 200 115.5 203.5 115.5C207 115.5 209.5 111.5 209.5 111.5C209.5 111.5 207 107.5 203.5 107.5Z" stroke="#858585" stroke-linejoin="round"/>
<circle cx="203.5" cy="111.5" r="2" fill="#818181"/>
<path d="M200 116.5L209.5 107" stroke="white" stroke-width="1.9" stroke-linecap="round" stroke-linejoin="round"/>
<path d="M197.5 117.5L209.5 105.5" stroke="#858585" stroke-linecap="round" stroke-linejoin="round"/>
</g>
<rect opacity="0.25" y="67" width="220" height="30" fill="#3E87F8"/>
<path d="M40.1136 78.2727V87H39.0568V78.2727H40.1136ZM42.0962 87V80.4545H43.0678V81.4773H43.1531C43.2894 81.1278 43.5096 80.8565 43.8136 80.6634C44.1175 80.4673 44.4826 80.3693 44.9087 80.3693C45.3406 80.3693 45.6999 80.4673 45.9869 80.6634C46.2766 80.8565 46.5025 81.1278 46.6644 81.4773H46.7326C46.9002 81.1392 47.1516 80.8707 47.4869 80.6719C47.8221 80.4702 48.2241 80.3693 48.6928 80.3693C49.2781 80.3693 49.7567 80.5526 50.1289 80.919C50.5011 81.2827 50.6871 81.8494 50.6871 82.6193V87H49.6815V82.6193C49.6815 82.1364 49.5494 81.7912 49.2852 81.5838C49.021 81.3764 48.7099 81.2727 48.3519 81.2727C47.8917 81.2727 47.5352 81.4119 47.2823 81.6903C47.0295 81.9659 46.9031 82.3153 46.9031 82.7386V87H45.8803V82.517C45.8803 82.1449 45.7596 81.8452 45.5181 81.6179C45.2766 81.3878 44.9656 81.2727 44.5849 81.2727C44.3235 81.2727 44.0792 81.3423 43.8519 81.4815C43.6275 81.6207 43.4457 81.8139 43.3065 82.0611C43.1701 82.3054 43.1019 82.5881 43.1019 82.9091V87H42.0962ZM54.4521 87.1534C54.0373 87.1534 53.6609 87.0753 53.3228 86.919C52.9847 86.7599 52.7163 86.5312 52.5174 86.233C52.3185 85.9318 52.2191 85.5682 52.2191 85.142C52.2191 84.767 52.293 84.4631 52.4407 84.2301C52.5884 83.9943 52.7859 83.8097 53.033 83.6761C53.2802 83.5426 53.5529 83.4432 53.8512 83.3778C54.1523 83.3097 54.4549 83.2557 54.7589 83.2159C55.1566 83.1648 55.479 83.1264 55.7262 83.1009C55.9762 83.0724 56.158 83.0256 56.2717 82.9602C56.3881 82.8949 56.4464 82.7812 56.4464 82.6193V82.5852C56.4464 82.1648 56.3313 81.8381 56.1012 81.6051C55.8739 81.3722 55.5288 81.2557 55.0657 81.2557C54.5856 81.2557 54.2092 81.3608 53.9364 81.571C53.6637 81.7812 53.4719 82.0057 53.3612 82.2443L52.4066 81.9034C52.5771 81.5057 52.8043 81.196 53.0884 80.9744C53.3754 80.75 53.6879 80.5937 54.0259 80.5057C54.3668 80.4148 54.7021 80.3693 55.0316 80.3693C55.2418 80.3693 55.4833 80.3949 55.756 80.446C56.0316 80.4943 56.2972 80.5952 56.5529 80.7486C56.8114 80.902 57.0259 81.1335 57.1964 81.4432C57.3668 81.7528 57.4521 82.1676 57.4521 82.6875V87H56.4464V86.1136H56.3952C56.3271 86.2557 56.2134 86.4077 56.0543 86.5696C55.8952 86.7315 55.6836 86.8693 55.4194 86.983C55.1552 87.0966 54.8327 87.1534 54.4521 87.1534ZM54.6055 86.25C55.0032 86.25 55.3384 86.1719 55.6112 86.0156C55.8867 85.8594 56.0941 85.6577 56.2333 85.4105C56.3754 85.1634 56.4464 84.9034 56.4464 84.6307V83.7102C56.4038 83.7614 56.31 83.8082 56.1651 83.8509C56.0231 83.8906 55.8583 83.9261 55.6708 83.9574C55.4862 83.9858 55.3058 84.0114 55.1296 84.0341C54.9563 84.054 54.8157 84.071 54.7077 84.0852C54.4464 84.1193 54.2021 84.1747 53.9748 84.2514C53.7504 84.3253 53.5685 84.4375 53.4293 84.5881C53.293 84.7358 53.2248 84.9375 53.2248 85.1932C53.2248 85.5426 53.354 85.8068 53.6126 85.9858C53.8739 86.1619 54.2049 86.25 54.6055 86.25ZM61.9297 89.5909C61.1996 89.5909 60.6214 89.4574 60.1953 89.1903C59.772 88.9261 59.4581 88.6222 59.2536 88.2784L60.0547 87.7159C60.1456 87.8352 60.2607 87.9716 60.3999 88.125C60.5391 88.2812 60.7294 88.4162 60.9709 88.5298C61.2152 88.6463 61.5348 88.7045 61.9297 88.7045C62.4581 88.7045 62.8942 88.5767 63.2379 88.321C63.5817 88.0653 63.7536 87.6648 63.7536 87.1193V85.7898H63.6683C63.5945 85.9091 63.4893 86.0568 63.353 86.233C63.2195 86.4062 63.0263 86.5611 62.7734 86.6974C62.5234 86.831 62.1854 86.8977 61.7592 86.8977C61.2308 86.8977 60.7564 86.7727 60.3359 86.5227C59.9183 86.2727 59.5874 85.9091 59.343 85.4318C59.1016 84.9545 58.9808 84.375 58.9808 83.6932C58.9808 83.0227 59.0987 82.4389 59.3345 81.9418C59.5703 81.4418 59.8984 81.0554 60.3189 80.7827C60.7393 80.5071 61.2251 80.3693 61.7763 80.3693C62.2024 80.3693 62.5405 80.4403 62.7905 80.5824C63.0433 80.7216 63.2365 80.8807 63.37 81.0597C63.5064 81.2358 63.6115 81.3807 63.6854 81.4943H63.7876V80.4545H64.7592V87.1875C64.7592 87.75 64.6314 88.2074 64.3757 88.5597C64.1229 88.9148 63.782 89.1747 63.353 89.3395C62.9268 89.5071 62.4524 89.5909 61.9297 89.5909ZM61.8956 85.9943C62.5007 85.9943 62.9638 85.7898 63.2848 85.3807C63.6087 84.9687 63.7706 84.4006 63.7706 83.6761C63.7706 82.9687 63.6115 82.392 63.2933 81.946C62.9751 81.4972 62.5092 81.2727 61.8956 81.2727C61.4695 81.2727 61.1143 81.3807 60.8303 81.5966C60.549 81.8125 60.3374 82.1023 60.1953 82.4659C60.0561 82.8295 59.9865 83.233 59.9865 83.6761C59.9865 84.358 60.147 84.9148 60.468 85.3466C60.7891 85.7784 61.2649 85.9943 61.8956 85.9943ZM69.3445 87.1364C68.7138 87.1364 68.1697 86.9972 67.7124 86.7188C67.2578 86.4375 66.907 86.0455 66.6598 85.5426C66.4155 85.0369 66.2933 84.4489 66.2933 83.7784C66.2933 83.108 66.4155 82.517 66.6598 82.0057C66.907 81.4915 67.2507 81.0909 67.6911 80.804C68.1342 80.5142 68.6513 80.3693 69.2422 80.3693C69.5831 80.3693 69.9197 80.4261 70.2521 80.5398C70.5845 80.6534 70.8871 80.8381 71.1598 81.0938C71.4325 81.3466 71.6499 81.6818 71.8118 82.0994C71.9737 82.517 72.0547 83.0312 72.0547 83.642V84.0682H67.3033C67.326 84.767 67.5234 85.3026 67.8956 85.6747C68.2706 86.0469 68.7536 86.233 69.3445 86.233C69.7393 86.233 70.0788 86.1477 70.3629 85.9773C70.647 85.8068 70.853 85.5511 70.9808 85.2102L71.9524 85.483C71.799 85.9773 71.4922 86.3764 71.032 86.6804C70.5717 86.9844 70.0092 87.1364 69.3445 87.1364ZM67.3033 83.1989H71.032C71.032 82.6449 70.87 82.1861 70.5462 81.8224C70.2223 81.456 69.7876 81.2727 69.2422 81.2727C68.8587 81.2727 68.5263 81.3622 68.245 81.5412C67.9638 81.7202 67.7422 81.9574 67.5803 82.2528C67.4183 82.5455 67.326 82.8608 67.3033 83.1989Z" fill="#444444"/>
<path fill-rule="evenodd" clip-rule="evenodd" d="M16.8056 78C16.375 78 16 78.3586 16 78.8333V86.1667C16 86.6414 16.375 87 16.8056 87H26.1944C26.625 87 27 86.6414 27 86.1667V78.8333C27 78.3586 26.625 78 26.1944 78H16.8056ZM16.8056 77C15.8084 77 15 77.8208 15 78.8333V86.1667C15 87.1792 15.8084 88 16.8056 88H26.1944C27.1916 88 28 87.1792 28 86.1667V78.8333C28 77.8208 27.1916 77 26.1944 77H16.8056Z" fill="#444444"/>
<path fill-rule="evenodd" clip-rule="evenodd" d="M23.2929 80.5C23.6834 80.1095 24.3166 80.1095 24.7071 80.5L27.7071 83.5L27 84.2072L24 81.2072L21.2071 84L21.7071 84.5L21 85.2072L18.9693 83.1765L15.936 85.7043L15.2958 84.9361L18.3291 82.4083C18.7264 82.0771 19.3107 82.1036 19.6764 82.4694L20.5 83.2929L23.2929 80.5Z" fill="#444444"/>
<path d="M22 89.5C22 89.7761 21.7761 90 21.5 90C21.2239 90 21 89.7761 21 89.5C21 89.2239 21.2239 89 21.5 89C21.7761 89 22 89.2239 22 89.5Z" fill="#444444"/>
<path d="M24 89.5C24 89.7761 23.7761 90 23.5 90C23.2239 90 23 89.7761 23 89.5C23 89.2239 23.2239 89 23.5 89C23.7761 89 24 89.2239 24 89.5Z" fill="#444444"/>
<path d="M20 89.5C20 89.7761 19.7761 90 19.5 90C19.2239 90 19 89.7761 19 89.5C19 89.2239 19.2239 89 19.5 89C19.7761 89 20 89.2239 20 89.5Z" fill="#444444"/>
<path d="M175 83C175 82.4477 175.448 82 176 82H183C183.552 82 184 82.4477 184 83V87C184 87.5523 183.552 88 183 88H176C175.448 88 175 87.5523 175 87V83Z" fill="#444444"/>
<path opacity="0.6" d="M176.5 82V78.5786C176.5 76.8783 177.878 75.5 179.579 75.5V75.5C179.858 75.5 180.137 75.5343 180.409 75.6022L180.456 75.6141C181.399 75.8497 182.121 76.6075 182.312 77.5603L182.5 78.5" stroke="#444444"/>
<path d="M203.5 78.5C200 78.5 197.5 82.5 197.5 82.5C197.5 82.5 200 86.5 203.5 86.5C207 86.5 209.5 82.5 209.5 82.5C209.5 82.5 207 78.5 203.5 78.5Z" stroke="#444444" stroke-linejoin="round"/>
<circle cx="203.5" cy="82.5" r="2" fill="#444444"/>
<path d="M39.0568 56V47.2727H42.108C42.7159 47.2727 43.2173 47.3778 43.6122 47.5881C44.0071 47.7955 44.3011 48.0753 44.4943 48.4276C44.6875 48.777 44.7841 49.1648 44.7841 49.5909C44.7841 49.9659 44.7173 50.2756 44.5838 50.5199C44.4531 50.7642 44.2798 50.9574 44.0639 51.0994C43.8509 51.2415 43.6193 51.3466 43.3693 51.4148V51.5C43.6364 51.517 43.9048 51.6108 44.1747 51.7812C44.4446 51.9517 44.6705 52.196 44.8523 52.5142C45.0341 52.8324 45.125 53.2216 45.125 53.6818C45.125 54.1193 45.0256 54.5128 44.8267 54.8622C44.6278 55.2116 44.3139 55.4886 43.8849 55.6932C43.456 55.8977 42.8977 56 42.2102 56H39.0568ZM40.1136 55.0625H42.2102C42.9006 55.0625 43.3906 54.929 43.6804 54.6619C43.973 54.392 44.1193 54.0653 44.1193 53.6818C44.1193 53.3864 44.044 53.1136 43.8935 52.8636C43.7429 52.6108 43.5284 52.4091 43.25 52.2585C42.9716 52.1051 42.642 52.0284 42.2614 52.0284H40.1136V55.0625ZM40.1136 51.108H42.0739C42.5511 51.108 42.9545 50.9702 43.2841 50.6946C43.6136 50.419 43.7784 50.0511 43.7784 49.5909C43.7784 49.2074 43.6449 48.8821 43.3778 48.6151C43.1108 48.3452 42.6875 48.2102 42.108 48.2102H40.1136V51.108ZM50.8501 53.3239V49.4545H51.8558V56H50.8501V54.892H50.782C50.6286 55.2244 50.3899 55.5071 50.0661 55.7401C49.7422 55.9702 49.3331 56.0852 48.8388 56.0852C48.2251 56.0852 47.7195 55.8821 47.3217 55.4759C46.924 55.0696 46.7251 54.4489 46.7251 53.6136V49.4545H47.7308V53.5455C47.7308 54.0227 47.8643 54.4034 48.1314 54.6875C48.4013 54.9716 48.745 55.1136 49.1626 55.1136C49.4126 55.1136 49.6669 55.0497 49.9254 54.9219C50.1868 54.794 50.4055 54.598 50.5817 54.3338C50.7607 54.0696 50.8501 53.733 50.8501 53.3239ZM56.5444 49.4545V50.3068H55.1467V54.125C55.1467 54.4091 55.1879 54.6222 55.2702 54.7642C55.3555 54.9034 55.4634 54.9972 55.5941 55.0455C55.7276 55.0909 55.8683 55.1136 56.016 55.1136C56.1268 55.1136 56.2177 55.108 56.2887 55.0966C56.3597 55.0824 56.4165 55.071 56.4592 55.0625L56.6637 55.9659C56.5955 55.9915 56.5004 56.017 56.3782 56.0426C56.256 56.071 56.1012 56.0852 55.9137 56.0852C55.6296 56.0852 55.3512 56.0241 55.0785 55.902C54.8086 55.7798 54.5842 55.5938 54.4052 55.3438C54.229 55.0938 54.141 54.7784 54.141 54.3977V50.3068H53.1523V49.4545H54.141V47.8864H55.1467V49.4545H56.5444ZM60.9038 49.4545V50.3068H59.506V54.125C59.506 54.4091 59.5472 54.6222 59.6296 54.7642C59.7148 54.9034 59.8228 54.9972 59.9535 55.0455C60.087 55.0909 60.2276 55.1136 60.3754 55.1136C60.4862 55.1136 60.5771 55.108 60.6481 55.0966C60.7191 55.0824 60.7759 55.071 60.8185 55.0625L61.0231 55.9659C60.9549 55.9915 60.8597 56.017 60.7376 56.0426C60.6154 56.071 60.4606 56.0852 60.2731 56.0852C59.989 56.0852 59.7106 56.0241 59.4379 55.902C59.168 55.7798 58.9435 55.5938 58.7646 55.3438C58.5884 55.0938 58.5004 54.7784 58.5004 54.3977V50.3068H57.5117V49.4545H58.5004V47.8864H59.506V49.4545H60.9038ZM65.0053 56.1364C64.4144 56.1364 63.896 55.9957 63.4499 55.7145C63.0067 55.4332 62.6602 55.0398 62.4102 54.5341C62.163 54.0284 62.0394 53.4375 62.0394 52.7614C62.0394 52.0795 62.163 51.4844 62.4102 50.9759C62.6602 50.4673 63.0067 50.0724 63.4499 49.7912C63.896 49.5099 64.4144 49.3693 65.0053 49.3693C65.5962 49.3693 66.1133 49.5099 66.5565 49.7912C67.0025 50.0724 67.3491 50.4673 67.5962 50.9759C67.8462 51.4844 67.9712 52.0795 67.9712 52.7614C67.9712 53.4375 67.8462 54.0284 67.5962 54.5341C67.3491 55.0398 67.0025 55.4332 66.5565 55.7145C66.1133 55.9957 65.5962 56.1364 65.0053 56.1364ZM65.0053 55.233C65.4542 55.233 65.8235 55.1179 66.1133 54.8878C66.4031 54.6577 66.6175 54.3551 66.7567 53.9801C66.896 53.6051 66.9656 53.1989 66.9656 52.7614C66.9656 52.3239 66.896 51.9162 66.7567 51.5384C66.6175 51.1605 66.4031 50.8551 66.1133 50.6222C65.8235 50.3892 65.4542 50.2727 65.0053 50.2727C64.5565 50.2727 64.1871 50.3892 63.8974 50.6222C63.6076 50.8551 63.3931 51.1605 63.2539 51.5384C63.1147 51.9162 63.0451 52.3239 63.0451 52.7614C63.0451 53.1989 63.1147 53.6051 63.2539 53.9801C63.3931 54.3551 63.6076 54.6577 63.8974 54.8878C64.1871 55.1179 64.5565 55.233 65.0053 55.233ZM70.5121 52.0625V56H69.5064V49.4545H70.478V50.4773H70.5632C70.7166 50.1449 70.9496 49.8778 71.2621 49.6761C71.5746 49.4716 71.978 49.3693 72.4723 49.3693C73.1342 49.3693 73.6683 49.5724 74.0746 49.9787C74.4837 50.3849 74.6882 51.0057 74.6882 51.8409V56H73.6825V51.9091C73.6825 51.3949 73.549 50.9943 73.282 50.7074C73.0149 50.4176 72.6484 50.2727 72.1825 50.2727C71.7024 50.2727 71.3033 50.429 70.9851 50.7415C70.6697 51.0511 70.5121 51.4915 70.5121 52.0625Z" fill="#444444"/>
<path d="M175 53C175 52.4477 175.448 52 176 52H183C183.552 52 184 52.4477 184 53V57C184 57.5523 183.552 58 183 58H176C175.448 58 175 57.5523 175 57V53Z" fill="#444444"/>
<path opacity="0.6" d="M176.5 52V48.5786C176.5 46.8783 177.878 45.5 179.579 45.5V45.5C179.858 45.5 180.137 45.5343 180.409 45.6022L180.456 45.6141C181.399 45.8497 182.121 46.6075 182.312 47.5603L182.5 48.5" stroke="#333333"/>
<path d="M203.5 46.5C200 46.5 197.5 50.5 197.5 50.5C197.5 50.5 200 54.5 203.5 54.5C207 54.5 209.5 50.5 209.5 50.5C209.5 50.5 207 46.5 203.5 46.5Z" stroke="#454545" stroke-opacity="0.88" stroke-linejoin="round"/>
<circle cx="203.5" cy="50.5" r="2" fill="#444444"/>
<rect y="127" width="220" height="30" fill="#F6F6F6"/>
<path d="M175 143C175 142.448 175.448 142 176 142H183C183.552 142 184 142.448 184 143V147C184 147.552 183.552 148 183 148H176C175.448 148 175 147.552 175 147V143Z" fill="#444444"/>
<path opacity="0.6" fill-rule="evenodd" clip-rule="evenodd" d="M179.579 136C178.154 136 177 137.154 177 138.579V142H176V138.579C176 136.602 177.602 135 179.579 135C179.899 135 180.219 135.039 180.53 135.117L180.578 135.129L180.456 135.614L180.578 135.129C181.708 135.412 182.574 136.32 182.802 137.462L182.99 138.402L182.01 138.598L181.822 137.658C181.669 136.895 181.09 136.288 180.335 136.099L180.288 136.087C180.056 136.029 179.818 136 179.579 136Z" fill="#444444"/>
<path d="M40.1136 138.273V147H39.0568V138.273H40.1136ZM42.0962 147V140.455H43.0678V141.477H43.1531C43.2894 141.128 43.5096 140.857 43.8136 140.663C44.1175 140.467 44.4826 140.369 44.9087 140.369C45.3406 140.369 45.6999 140.467 45.9869 140.663C46.2766 140.857 46.5025 141.128 46.6644 141.477H46.7326C46.9002 141.139 47.1516 140.871 47.4869 140.672C47.8221 140.47 48.2241 140.369 48.6928 140.369C49.2781 140.369 49.7567 140.553 50.1289 140.919C50.5011 141.283 50.6871 141.849 50.6871 142.619V147H49.6815V142.619C49.6815 142.136 49.5494 141.791 49.2852 141.584C49.021 141.376 48.7099 141.273 48.3519 141.273C47.8917 141.273 47.5352 141.412 47.2823 141.69C47.0295 141.966 46.9031 142.315 46.9031 142.739V147H45.8803V142.517C45.8803 142.145 45.7596 141.845 45.5181 141.618C45.2766 141.388 44.9656 141.273 44.5849 141.273C44.3235 141.273 44.0792 141.342 43.8519 141.482C43.6275 141.621 43.4457 141.814 43.3065 142.061C43.1701 142.305 43.1019 142.588 43.1019 142.909V147H42.0962ZM54.4521 147.153C54.0373 147.153 53.6609 147.075 53.3228 146.919C52.9847 146.76 52.7163 146.531 52.5174 146.233C52.3185 145.932 52.2191 145.568 52.2191 145.142C52.2191 144.767 52.293 144.463 52.4407 144.23C52.5884 143.994 52.7859 143.81 53.033 143.676C53.2802 143.543 53.5529 143.443 53.8512 143.378C54.1523 143.31 54.4549 143.256 54.7589 143.216C55.1566 143.165 55.479 143.126 55.7262 143.101C55.9762 143.072 56.158 143.026 56.2717 142.96C56.3881 142.895 56.4464 142.781 56.4464 142.619V142.585C56.4464 142.165 56.3313 141.838 56.1012 141.605C55.8739 141.372 55.5288 141.256 55.0657 141.256C54.5856 141.256 54.2092 141.361 53.9364 141.571C53.6637 141.781 53.4719 142.006 53.3612 142.244L52.4066 141.903C52.5771 141.506 52.8043 141.196 53.0884 140.974C53.3754 140.75 53.6879 140.594 54.0259 140.506C54.3668 140.415 54.7021 140.369 55.0316 140.369C55.2418 140.369 55.4833 140.395 55.756 140.446C56.0316 140.494 56.2972 140.595 56.5529 140.749C56.8114 140.902 57.0259 141.134 57.1964 141.443C57.3668 141.753 57.4521 142.168 57.4521 142.688V147H56.4464V146.114H56.3952C56.3271 146.256 56.2134 146.408 56.0543 146.57C55.8952 146.732 55.6836 146.869 55.4194 146.983C55.1552 147.097 54.8327 147.153 54.4521 147.153ZM54.6055 146.25C55.0032 146.25 55.3384 146.172 55.6112 146.016C55.8867 145.859 56.0941 145.658 56.2333 145.411C56.3754 145.163 56.4464 144.903 56.4464 144.631V143.71C56.4038 143.761 56.31 143.808 56.1651 143.851C56.0231 143.891 55.8583 143.926 55.6708 143.957C55.4862 143.986 55.3058 144.011 55.1296 144.034C54.9563 144.054 54.8157 144.071 54.7077 144.085C54.4464 144.119 54.2021 144.175 53.9748 144.251C53.7504 144.325 53.5685 144.437 53.4293 144.588C53.293 144.736 53.2248 144.937 53.2248 145.193C53.2248 145.543 53.354 145.807 53.6126 145.986C53.8739 146.162 54.2049 146.25 54.6055 146.25ZM61.9297 149.591C61.1996 149.591 60.6214 149.457 60.1953 149.19C59.772 148.926 59.4581 148.622 59.2536 148.278L60.0547 147.716C60.1456 147.835 60.2607 147.972 60.3999 148.125C60.5391 148.281 60.7294 148.416 60.9709 148.53C61.2152 148.646 61.5348 148.705 61.9297 148.705C62.4581 148.705 62.8942 148.577 63.2379 148.321C63.5817 148.065 63.7536 147.665 63.7536 147.119V145.79H63.6683C63.5945 145.909 63.4893 146.057 63.353 146.233C63.2195 146.406 63.0263 146.561 62.7734 146.697C62.5234 146.831 62.1854 146.898 61.7592 146.898C61.2308 146.898 60.7564 146.773 60.3359 146.523C59.9183 146.273 59.5874 145.909 59.343 145.432C59.1016 144.955 58.9808 144.375 58.9808 143.693C58.9808 143.023 59.0987 142.439 59.3345 141.942C59.5703 141.442 59.8984 141.055 60.3189 140.783C60.7393 140.507 61.2251 140.369 61.7763 140.369C62.2024 140.369 62.5405 140.44 62.7905 140.582C63.0433 140.722 63.2365 140.881 63.37 141.06C63.5064 141.236 63.6115 141.381 63.6854 141.494H63.7876V140.455H64.7592V147.188C64.7592 147.75 64.6314 148.207 64.3757 148.56C64.1229 148.915 63.782 149.175 63.353 149.339C62.9268 149.507 62.4524 149.591 61.9297 149.591ZM61.8956 145.994C62.5007 145.994 62.9638 145.79 63.2848 145.381C63.6087 144.969 63.7706 144.401 63.7706 143.676C63.7706 142.969 63.6115 142.392 63.2933 141.946C62.9751 141.497 62.5092 141.273 61.8956 141.273C61.4695 141.273 61.1143 141.381 60.8303 141.597C60.549 141.812 60.3374 142.102 60.1953 142.466C60.0561 142.83 59.9865 143.233 59.9865 143.676C59.9865 144.358 60.147 144.915 60.468 145.347C60.7891 145.778 61.2649 145.994 61.8956 145.994ZM69.3445 147.136C68.7138 147.136 68.1697 146.997 67.7124 146.719C67.2578 146.438 66.907 146.045 66.6598 145.543C66.4155 145.037 66.2933 144.449 66.2933 143.778C66.2933 143.108 66.4155 142.517 66.6598 142.006C66.907 141.491 67.2507 141.091 67.6911 140.804C68.1342 140.514 68.6513 140.369 69.2422 140.369C69.5831 140.369 69.9197 140.426 70.2521 140.54C70.5845 140.653 70.8871 140.838 71.1598 141.094C71.4325 141.347 71.6499 141.682 71.8118 142.099C71.9737 142.517 72.0547 143.031 72.0547 143.642V144.068H67.3033C67.326 144.767 67.5234 145.303 67.8956 145.675C68.2706 146.047 68.7536 146.233 69.3445 146.233C69.7393 146.233 70.0788 146.148 70.3629 145.977C70.647 145.807 70.853 145.551 70.9808 145.21L71.9524 145.483C71.799 145.977 71.4922 146.376 71.032 146.68C70.5717 146.984 70.0092 147.136 69.3445 147.136ZM67.3033 143.199H71.032C71.032 142.645 70.87 142.186 70.5462 141.822C70.2223 141.456 69.7876 141.273 69.2422 141.273C68.8587 141.273 68.5263 141.362 68.245 141.541C67.9638 141.72 67.7422 141.957 67.5803 142.253C67.4183 142.545 67.326 142.861 67.3033 143.199Z" fill="#333333"/>
<g opacity="0.8">
<path d="M15.5 136.833C15.5 136.09 16.0917 135.5 16.8056 135.5H26.1944C26.9083 135.5 27.5 136.09 27.5 136.833V144.167C27.5 144.91 26.9083 145.5 26.1944 145.5H16.8056C16.0917 145.5 15.5 144.91 15.5 144.167V136.833Z" stroke="#333333"/>
<path d="M23.6464 138.854L24 139.207L24 139.207L23.6464 138.854ZM20.1464 141.646L19.7929 142L20.5 142.707L20.8536 142.354L20.1464 141.646ZM24.3536 138.854L24 139.207L24 139.207L24.3536 138.854ZM26.6464 141.854L27 142.207L27.7071 141.5L27.3536 141.146L26.6464 141.854ZM18.6492 140.792L18.3291 140.408L18.3291 140.408L18.6492 140.792ZM15.6799 142.616L15.2958 142.936L15.936 143.704L16.3201 143.384L15.6799 142.616ZM20.6464 142.854L21 143.207L21.7071 142.5L21.3536 142.146L20.6464 142.854ZM23.2929 138.5L20.1464 141.646L20.8536 142.354L24 139.207L23.2929 138.5ZM24 139.207L26.6464 141.854L27.3536 141.146L24.7071 138.5L24 139.207ZM18.3291 140.408L15.6799 142.616L16.3201 143.384L18.9693 141.176L18.3291 140.408ZM21.3536 142.146L19.6764 140.469L18.9693 141.176L20.6464 142.854L21.3536 142.146ZM18.9693 141.176L18.9693 141.176L19.6764 140.469C19.3107 140.104 18.7265 140.077 18.3291 140.408L18.9693 141.176ZM24 139.207L24 139.207L24.7071 138.5C24.3166 138.109 23.6834 138.109 23.2929 138.5L24 139.207Z" fill="#333333"/>
<path d="M22 147.5C22 147.776 21.7761 148 21.5 148C21.2239 148 21 147.776 21 147.5C21 147.224 21.2239 147 21.5 147C21.7761 147 22 147.224 22 147.5Z" fill="#333333"/>
<path d="M24 147.5C24 147.776 23.7761 148 23.5 148C23.2239 148 23 147.776 23 147.5C23 147.224 23.2239 147 23.5 147C23.7761 147 24 147.224 24 147.5Z" fill="#333333"/>
<path d="M20 147.5C20 147.776 19.7761 148 19.5 148C19.2239 148 19 147.776 19 147.5C19 147.224 19.2239 147 19.5 147C19.7761 147 20 147.224 20 147.5Z" fill="#333333"/>
</g>
<path d="M203.5 137.5C200 137.5 197.5 141.5 197.5 141.5C197.5 141.5 200 145.5 203.5 145.5C207 145.5 209.5 141.5 209.5 141.5C209.5 141.5 207 137.5 203.5 137.5Z" stroke="#444444" stroke-opacity="0.88" stroke-linejoin="round"/>
<circle cx="203.5" cy="141.5" r="2" fill="#444444"/>
<path d="M199 22L208 13M208 22L199 13" stroke="#444444"/>
<path d="M17.5195 19.5879H21.252V21H15.7617V12.4688H17.5195V19.5879ZM27.7992 19.2422H24.7172L24.1312 21H22.2621L25.4379 12.4688H27.0668L30.2602 21H28.391L27.7992 19.2422ZM25.1918 17.8184H27.3246L26.2523 14.625L25.1918 17.8184ZM33.7195 16.3125L35.4949 12.4688H37.4168L34.616 17.9062V21H32.8289V17.9062L30.0281 12.4688H31.9559L33.7195 16.3125ZM43.9289 17.3027H40.5539V19.5879H44.5148V21H38.7961V12.4688H44.5031V13.8926H40.5539V15.9258H43.9289V17.3027ZM49.3043 17.877H47.9039V21H46.1461V12.4688H49.316C50.3238 12.4688 51.1012 12.6934 51.648 13.1426C52.1949 13.5918 52.4684 14.2266 52.4684 15.0469C52.4684 15.6289 52.3414 16.1152 52.0875 16.5059C51.8375 16.8926 51.4566 17.2012 50.9449 17.4316L52.7906 20.918V21H50.9039L49.3043 17.877ZM47.9039 16.4531H49.3219C49.7633 16.4531 50.1051 16.3418 50.3473 16.1191C50.5895 15.8926 50.7105 15.582 50.7105 15.1875C50.7105 14.7852 50.5953 14.4688 50.3648 14.2383C50.1383 14.0078 49.7887 13.8926 49.316 13.8926H47.9039V16.4531ZM58.834 18.7617C58.834 18.4297 58.7168 18.1758 58.4824 18C58.248 17.8203 57.8262 17.6328 57.2168 17.4375C56.6074 17.2383 56.125 17.043 55.7695 16.8516C54.8008 16.3281 54.3164 15.623 54.3164 14.7363C54.3164 14.2754 54.4453 13.8652 54.7031 13.5059C54.9648 13.1426 55.3379 12.8594 55.8223 12.6562C56.3105 12.4531 56.8574 12.3516 57.4629 12.3516C58.0723 12.3516 58.6152 12.4629 59.0918 12.6855C59.5684 12.9043 59.9375 13.2148 60.1992 13.6172C60.4648 14.0195 60.5977 14.4766 60.5977 14.9883H58.8398C58.8398 14.5977 58.7168 14.2949 58.4707 14.0801C58.2246 13.8613 57.8789 13.752 57.4336 13.752C57.0039 13.752 56.6699 13.8438 56.4316 14.0273C56.1934 14.207 56.0742 14.4453 56.0742 14.7422C56.0742 15.0195 56.2129 15.252 56.4902 15.4395C56.7715 15.627 57.1836 15.8027 57.7266 15.9668C58.7266 16.2676 59.4551 16.6406 59.9121 17.0859C60.3691 17.5312 60.5977 18.0859 60.5977 18.75C60.5977 19.4883 60.3184 20.0684 59.7598 20.4902C59.2012 20.9082 58.4492 21.1172 57.5039 21.1172C56.8477 21.1172 56.25 20.998 55.7109 20.7598C55.1719 20.5176 54.7598 20.1875 54.4746 19.7695C54.1934 19.3516 54.0527 18.8672 54.0527 18.3164H55.8164C55.8164 19.2578 56.3789 19.7285 57.5039 19.7285C57.9219 19.7285 58.248 19.6445 58.4824 19.4766C58.7168 19.3047 58.834 19.0664 58.834 18.7617Z" fill="#AFAFAF"/>
<g opacity="0.8">
<rect x="15.5" y="46.5" width="12" height="8" rx="4" stroke="#333333"/>
<rect opacity="0.2" x="19" y="49" width="5" height="3" fill="#333333"/>
</g>
<rect y="35" width="220" height="1" fill="#ECECEC"/>
</g>
<defs>
<filter id="filter0_d" x="0" y="0" width="221" height="495" filterUnits="userSpaceOnUse" color-interpolation-filters="sRGB">
<feFlood flood-opacity="0" result="BackgroundImageFix"/>
<feColorMatrix in="SourceAlpha" type="matrix" values="0 0 0 0 0 0 0 0 0 0 0 0 0 0 0 0 0 0 127 0"/>
<feOffset dx="1"/>
<feColorMatrix type="matrix" values="0 0 0 0 0.898039 0 0 0 0 0.898039 0 0 0 0 0.898039 0 0 0 1 0"/>
<feBlend mode="normal" in2="BackgroundImageFix" result="effect1_dropShadow"/>
<feBlend mode="normal" in="SourceGraphic" in2="effect1_dropShadow" result="shape"/>
</filter>
<clipPath id="clip0">
<path d="M0 0H220V495H0V0Z" fill="white"/>
</clipPath>
<clipPath id="clip1">
<rect x="38" y="195" width="13" height="13" fill="white"/>
</clipPath>
<clipPath id="clip2">
<rect x="197" y="105" width="13" height="13" fill="white"/>
</clipPath>
</defs>
</svg>
