<svg width="58" height="524" viewBox="0 0 58 524" fill="white" xmlns="http://www.w3.org/2000/svg">
<rect width="58" height="524" fill="white"/>
<path fill-rule="evenodd" clip-rule="evenodd" d="M20 486.5C20 485.119 21.1193 484 22.5 484H35.5C36.8807 484 38 485.119 38 486.5V496.5C38 497.881 36.8807 499 35.5 499H22.5C21.1193 499 20 497.881 20 496.5V486.5ZM22.5 486C22.2239 486 22 486.224 22 486.5V496.5C22 496.776 22.2239 497 22.5 497H35.5C35.7761 497 36 496.776 36 496.5V486.5C36 486.224 35.7761 486 35.5 486H22.5Z" fill="#808080"/>
<path fill-rule="evenodd" clip-rule="evenodd" d="M28.0188 492.131L31.2139 489.468C31.8939 488.902 32.8645 488.847 33.6041 489.332L38 492.22V496.5C38 497.881 36.8807 498 35.5 498H22.5C22 498 20.5 497.881 20.5 496.5L20 494.461L24.2679 491.125C24.9917 490.56 26.0081 490.56 26.7319 491.125L28.0188 492.131ZM25.5006 492.701L25.4994 492.701L22 495.436V497H36V493.299L32.5062 491.004C32.5025 491.002 32.4977 491.002 32.4943 491.005L29.5 493.5L29.6967 493.697C29.7734 493.773 29.833 493.86 29.8761 493.951C30.041 494.302 29.9632 494.731 29.6698 495C29.6293 495.037 29.5847 495.071 29.5361 495.101C29.2142 495.302 28.8011 495.28 28.5021 495.047L25.5006 492.701Z" fill="#808080"/>
<path d="M30 501C30 501.552 29.5523 502 29 502C28.4477 502 28 501.552 28 501C28 500.448 28.4477 500 29 500C29.5523 500 30 500.448 30 501Z" fill="#808080"/>
<path d="M33 501C33 501.552 32.5523 502 32 502C31.4477 502 31 501.552 31 501C31 500.448 31.4477 500 32 500C32.5523 500 33 500.448 33 501Z" fill="#808080"/>
<path d="M27 501C27 501.552 26.5523 502 26 502C25.4477 502 25 501.552 25 501C25 500.448 25.4477 500 26 500C26.5523 500 27 500.448 27 501Z" fill="#808080"/>
<path fill-rule="evenodd" clip-rule="evenodd" d="M26.225 428.2C26.6668 428.531 26.7564 429.158 26.425 429.6L22.375 435L26.425 440.4C26.7564 440.842 26.6668 441.469 26.225 441.8C25.7832 442.131 25.1564 442.042 24.825 441.6L20.325 435.6C20.0583 435.244 20.0583 434.756 20.325 434.4L24.825 428.4C25.1564 427.958 25.7832 427.869 26.225 428.2Z" fill="#808080"/>
<path fill-rule="evenodd" clip-rule="evenodd" d="M31.775 428.2C32.2168 427.869 32.8436 427.958 33.175 428.4L37.675 434.4C37.9417 434.756 37.9417 435.244 37.675 435.6L33.175 441.6C32.8436 442.042 32.2168 442.131 31.775 441.8C31.3332 441.469 31.2436 440.842 31.575 440.4L35.625 435L31.575 429.6C31.2436 429.158 31.3332 428.531 31.775 428.2Z" fill="#808080"/>
<path fill-rule="evenodd" clip-rule="evenodd" d="M25.2501 368.284C25.6899 368.02 26.234 367.999 26.6927 368.228L31.9562 370.86L35.7283 368.597C36.728 367.997 38 368.717 38 369.883V381.717C38 382.244 37.7236 382.732 37.2717 383.003L32.7499 385.716C32.3101 385.98 31.766 386.001 31.3073 385.772L26.0438 383.14L22.2717 385.403C21.272 386.003 20 385.283 20 384.117V372.283C20 371.756 20.2764 371.268 20.7283 370.997L25.2501 368.284ZM26.0438 370.14L22 372.566V383.234L25.2501 381.284C25.6899 381.02 26.234 380.999 26.6927 381.228L31.9562 383.86L36 381.434V370.766L32.7499 372.716C32.3101 372.98 31.766 373.001 31.3073 372.772L26.0438 370.14Z" fill="#808080"/>
<path fill-rule="evenodd" clip-rule="evenodd" d="M25 382V370H27V382H25Z" fill="#808080"/>
<path fill-rule="evenodd" clip-rule="evenodd" d="M31 384V372H33V384H31Z" fill="#808080"/>
<path fill-rule="evenodd" clip-rule="evenodd" d="M29 326C32.866 326 36 322.866 36 319C36 315.134 32.866 312 29 312C25.134 312 22 315.134 22 319C22 322.866 25.134 326 29 326ZM29 328C33.9706 328 38 323.971 38 319C38 314.029 33.9706 310 29 310C24.0294 310 20 314.029 20 319C20 323.971 24.0294 328 29 328Z" fill="#808080"/>
<path d="M31.7064 318.447C32.1171 318.701 32.1171 319.299 31.7064 319.553L27.992 321.85C27.5589 322.118 27 321.807 27 321.298L27 316.702C27 316.193 27.5589 315.882 27.992 316.15L31.7064 318.447Z" fill="#808080"/>
<path fill-rule="evenodd" clip-rule="evenodd" d="M32 257H26C23.7909 257 22 258.791 22 261C22 263.209 23.7909 265 26 265H32C34.2091 265 36 263.209 36 261C36 258.791 34.2091 257 32 257ZM26 255C22.6863 255 20 257.686 20 261C20 264.314 22.6863 267 26 267H32C35.3137 267 38 264.314 38 261C38 257.686 35.3137 255 32 255H26Z" fill="#808080"/>
<path opacity="0.5" d="M25 260H33V262H25V260Z" fill="#808080"/>
<path fill-rule="evenodd" clip-rule="evenodd" d="M22.9954 197.952C22.4119 198.557 22 199.496 22 200.812C22 202.459 23.1789 204.209 24.8121 205.79C26.3732 207.301 28.1473 208.466 29 208.988C29.8527 208.466 31.6268 207.301 33.1879 205.79C34.8211 204.209 36 202.459 36 200.812C36 199.496 35.5881 198.557 35.0046 197.952C34.4205 197.347 33.5901 197 32.6 197C31.5313 197 30.5419 197.81 30.0197 198.356C29.4681 198.932 28.5319 198.932 27.9803 198.356C27.4581 197.81 26.4687 197 25.4 197C24.4099 197 23.5795 197.347 22.9954 197.952ZM21.5566 196.563C22.5565 195.528 23.9261 195 25.4 195C26.982 195 28.2659 195.902 29 196.561C29.7341 195.902 31.018 195 32.6 195C34.0739 195 35.4435 195.528 36.4434 196.563C37.4439 197.599 38 199.066 38 200.812C38 203.328 36.2775 205.582 34.579 207.227C32.8362 208.914 30.8836 210.182 29.9963 210.723C29.3813 211.098 28.6187 211.098 28.0037 210.723C27.1164 210.182 25.1638 208.914 23.421 207.227C21.7225 205.582 20 203.328 20 200.812C20 199.066 20.5561 197.599 21.5566 196.563Z" fill="#7F7F7F"/>
<path fill-rule="evenodd" clip-rule="evenodd" d="M20 139.5C20 138.119 21.1193 137 22.5 137H35.5C36.8807 137 38 138.119 38 139.5V150.5C38 151.881 36.8807 153 35.5 153H22.5C21.1193 153 20 151.881 20 150.5V139.5ZM22.5 139C22.2239 139 22 139.224 22 139.5V150.5C22 150.776 22.2239 151 22.5 151H35.5C35.7761 151 36 150.776 36 150.5V139.5C36 139.224 35.7761 139 35.5 139H22.5Z" fill="#3E87F8"/>
<path fill-rule="evenodd" clip-rule="evenodd" d="M28.0188 146.131L31.2139 143.468C31.8939 142.902 32.8645 142.847 33.6041 143.332L38 146.22V150.5C38 151.881 36.8807 152 35.5 152H22.5C22 152 20.5 151.881 20.5 150.5L20 148.461L24.2679 145.125C24.9917 144.56 26.0081 144.56 26.7319 145.125L28.0188 146.131ZM25.5006 146.701L25.4994 146.701L22 149.436V151H36V147.299L32.5062 145.004C32.5025 145.002 32.4977 145.002 32.4943 145.005L29.5 147.5L29.6967 147.697C29.7734 147.773 29.833 147.86 29.8761 147.951C30.041 148.302 29.9632 148.731 29.6698 149C29.6293 149.037 29.5847 149.071 29.5361 149.101C29.2142 149.302 28.8011 149.28 28.5021 149.047L25.5006 146.701Z" fill="#3E87F8"/>
<path d="M28.25 142C28.25 142.69 27.6904 143.25 27 143.25C26.3096 143.25 25.75 142.69 25.75 142C25.75 141.31 26.3096 140.75 27 140.75C27.6904 140.75 28.25 141.31 28.25 142Z" fill="#3E87F8"/>
<path fill-rule="evenodd" clip-rule="evenodd" d="M20 80C20 78.8954 20.8954 78 22 78H36C37.1046 78 38 78.8954 38 80V94C38 95.1046 37.1046 96 36 96H22C20.8954 96 20 95.1046 20 94V80ZM36 80H22V94H36V80Z" fill="#7F7F7F"/>
<path fill-rule="evenodd" clip-rule="evenodd" d="M26 25.0926L21.9285 35.2714L20.0715 34.5286L25.0715 22.0286H26.9285L31.9285 34.5286L30.0715 35.2714L26 25.0926Z" fill="#808080"/>
<path fill-rule="evenodd" clip-rule="evenodd" d="M22 31C22 30.4477 22.4477 30 23 30H29C29.5523 30 30 30.4477 30 31C30 31.5523 29.5523 32 29 32H23C22.4477 32 22 31.5523 22 31Z" fill="#808080"/>
<path fill-rule="evenodd" clip-rule="evenodd" d="M38 22H32V20H38V22Z" fill="#808080"/>
<path fill-rule="evenodd" clip-rule="evenodd" d="M34 36V22H36V36H34Z" fill="#808080"/>
<path fill-rule="evenodd" clip-rule="evenodd" d="M38 38H32V36H38V38Z" fill="#808080"/>
</svg>
